<svg id="svg" version="1.1" xmlns="http://www.w3.org/2000/svg" viewBox="0 0 243 252" style="display: block;"><path d="M0 0 C80.19 0 160.38 0 243 0 C243 83.16 243 166.32 243 252 C162.81 252 82.62 252 0 252 C0 168.84 0 85.68 0 0 Z " transform="translate(0,0)" style="fill: #FCFCFC;"/><path d="M0 0 C0.7528125 0.00515625 1.505625 0.0103125 2.28125 0.015625 C15.61922849 0.71238507 27.13589221 8.79891563 36.125 18.0625 C43.45907286 26.68995646 48.16356179 36.55067481 48 48 C48.66 48 49.32 48 50 48 C49.99097656 47.36835937 49.98195313 46.73671875 49.97265625 46.0859375 C50.37409277 33.97302683 56.31283905 23.74458307 64.625 15.1796875 C76.62609212 4.1655273 89.52164893 -0.3188706 105.65625 -0.15234375 C117.81981236 0.40183725 128.50534185 4.28445561 138 12 C139.37314663 13.63402077 140.71614617 15.29492672 142 17 C140.07063642 18.842617 138.13244033 20.67395452 136.1875 22.5 C135.64029297 23.02464844 135.09308594 23.54929687 134.52929688 24.08984375 C130.33984375 28 130.33984375 28 127 28 C125.1328125 26.7578125 125.1328125 26.7578125 123.125 25.125 C115.04699199 18.86012153 106.0141385 18.10226789 96 19 C87.32212162 21.18193781 79.9553362 25.90002932 74.75 33.1875 C71.3478428 38.82557273 71.3478428 38.82557273 68 49 C96.05 49 124.1 49 153 49 C153 68.13603568 152.32540145 79.94725654 139.8125 93.6875 C130.27606149 102.68256864 116.87464882 107.10688397 103.9375 107.4375 C88.6701909 106.90868818 75.36131534 102.0479036 64.25390625 91.421875 C58.10171568 84.81120229 51.50866578 76.23115575 50.75 66.9375 C50.8325 66.298125 50.915 65.65875 51 65 C49.68 65 48.36 65 47 65 C46.95875 65.9075 46.9175 66.815 46.875 67.75 C45.16161823 79.2111348 37.21774788 88.90653043 28.515625 96.03515625 C14.5829375 106.22505658 -0.54577446 108.77448072 -17.5625 106.375 C-30.22571682 103.70615343 -40.77260241 96.10826672 -48.375 85.75 C-51.78124082 80.278786 -53.38386359 74.19104565 -55 68 C-55.19722656 67.34902344 -55.39445312 66.69804687 -55.59765625 66.02734375 C-56.17261499 63.13022154 -56.13165934 60.32508698 -56.125 57.375 C-56.12757812 56.22773438 -56.13015625 55.08046875 -56.1328125 53.8984375 C-56 51 -56 51 -55 49 C-52.35753613 48.80794974 -49.81926341 48.7486358 -47.17553711 48.77294922 C-46.35609116 48.77265717 -45.5366452 48.77236511 -44.69236755 48.77206421 C-41.97058703 48.77346299 -39.24907673 48.78904972 -36.52734375 48.8046875 C-34.64547373 48.80841569 -32.76360178 48.81126357 -30.88172913 48.81326294 C-25.91847412 48.82091473 -20.95533539 48.84057636 -15.99212646 48.8626709 C-10.93161594 48.88309616 -5.8710867 48.89225753 -0.81054688 48.90234375 C9.12635329 48.92382089 19.06316699 48.95797533 29 49 C28.56426592 47.26482773 28.11820953 45.53224601 27.66796875 43.80078125 C27.42071045 42.83567627 27.17345215 41.87057129 26.91870117 40.8762207 C24.38635348 32.94808142 19.16595143 27.08595844 12 23 C3.34714971 18.72023892 -5.05165318 17.35068565 -14.4375 19.953125 C-20.56468742 22.1533423 -25.28212804 24.53714815 -30 29 C-30.66 29 -31.32 29 -32 29 C-33.296875 27.64453125 -33.296875 27.64453125 -34.75 25.8125 C-37.56315132 22.40345948 -40.52899715 19.72721653 -44 17 C-37.24509145 7.44995687 -26.87743516 2.63493937 -15.6875 0.3125 C-10.4428679 -0.13196035 -5.25914456 -0.13839854 0 0 Z " transform="translate(71,78)" style="fill: #2F8D46;"/><path d="M0 0 C0.69061523 0.27255615 1.38123047 0.5451123 2.09277344 0.82592773 C3.49994023 1.38170357 4.90509241 1.94260931 6.30810547 2.50878906 C9.21046816 3.67256226 12.13744056 4.76974288 15.0625 5.875 C19.96847762 7.76926907 24.82829539 9.75430647 29.67578125 11.79296875 C34.586389 13.84476941 39.51163495 15.86015329 44.4375 17.875 C45.35587646 18.25108398 46.27425293 18.62716797 47.22045898 19.01464844 C48.11966064 19.38235352 49.0188623 19.75005859 49.9453125 20.12890625 C50.82735352 20.49258301 51.70939453 20.85625977 52.61816406 21.23095703 C54.47293365 21.97548669 56.34063458 22.68833071 58.21777344 23.37451172 C59.5911084 23.88328857 59.5911084 23.88328857 60.9921875 24.40234375 C61.82218262 24.69874756 62.65217773 24.99515137 63.50732422 25.30053711 C64.40088623 25.80145874 64.40088623 25.80145874 65.3125 26.3125 C65.3125 27.3025 65.3125 28.2925 65.3125 29.3125 C61.47824246 31.56391203 57.40353826 33.12270303 53.25 34.6875 C47.4479981 36.88159037 41.66772706 39.12574209 35.89453125 41.39453125 C33.3125 42.3125 33.3125 42.3125 31.3125 42.3125 C31.36470703 43.88451172 31.36470703 43.88451172 31.41796875 45.48828125 C31.44610937 46.86717147 31.47340924 48.24607902 31.5 49.625 C31.52513672 50.31529297 31.55027344 51.00558594 31.57617188 51.71679688 C31.64912079 56.75027167 31.64912079 56.75027167 30.2109375 59.15234375 C27.51875408 60.79756695 24.75987256 61.62418627 21.75 62.5625 C15.00156507 64.87007434 9.87850082 67.91941123 4.3125 72.3125 C3.425625 72.910625 2.53875 73.50875 1.625 74.125 C-3.36165316 78.84210434 -7.05725771 84.7665255 -10 90.9375 C-10.556875 92.05125 -11.11375 93.165 -11.6875 94.3125 C-12.3475 94.3125 -13.0075 94.3125 -13.6875 94.3125 C-14.73046875 92.44140625 -14.73046875 92.44140625 -15.875 89.875 C-23.1651074 74.89330101 -35.06164445 67.03347207 -50.3828125 61.3046875 C-52.6875 60.3125 -52.6875 60.3125 -54.6875 58.3125 C-54.73923324 54.85006807 -54.63068019 51.44521943 -54.43359375 47.99023438 C-54.31653914 45.60691541 -54.31653914 45.60691541 -54.6875 42.3125 C-56.51361913 41.6013228 -56.51361913 41.6013228 -58.6875 41.3125 C-61.36507553 40.35582458 -64.0280996 39.37950178 -66.6875 38.375 C-67.3990625 38.11009766 -68.110625 37.84519531 -68.84375 37.57226562 C-72.21717555 36.30408419 -75.50841029 35.02622805 -78.6875 33.3125 C-78.543125 34.54226562 -78.39875 35.77203125 -78.25 37.0390625 C-78.06232274 38.67185464 -77.87483263 40.30466829 -77.6875 41.9375 C-77.59210938 42.74574219 -77.49671875 43.55398437 -77.3984375 44.38671875 C-76.90629102 48.71057708 -76.46745348 52.95282833 -76.6875 57.3125 C-77.6875 58.3125 -77.6875 58.3125 -80.25 58.375 C-81.054375 58.354375 -81.85875 58.33375 -82.6875 58.3125 C-83.57140942 54.70626253 -83.69071864 51.89348555 -83.12890625 48.23046875 C-82.99033203 47.29912109 -82.85175781 46.36777344 -82.70898438 45.40820312 C-82.55751953 44.44849609 -82.40605469 43.48878906 -82.25 42.5 C-82.02860352 41.03143555 -82.02860352 41.03143555 -81.80273438 39.53320312 C-81.43857276 37.12503759 -81.06660187 34.71835099 -80.6875 32.3125 C-81.80125 32.044375 -82.915 31.77625 -84.0625 31.5 C-87.6875 30.3125 -87.6875 30.3125 -89.6875 27.3125 C-85.24292462 24.39434445 -80.55241345 22.546501 -75.625 20.625 C-73.82156896 19.91287595 -72.01818484 19.20063307 -70.21484375 18.48828125 C-69.29558105 18.12686035 -68.37631836 17.76543945 -67.42919922 17.39306641 C-63.17518067 15.71646034 -58.93171955 14.01371976 -54.6875 12.3125 C-53.03517805 11.65228919 -51.38283418 10.99213322 -49.73046875 10.33203125 C-46.25102249 8.94066137 -42.77501094 7.54106137 -39.30078125 6.13671875 C-38.41326172 5.77900391 -37.52574219 5.42128906 -36.61132812 5.05273438 C-34.93075977 4.37522776 -33.25100354 3.69570136 -31.57226562 3.01367188 C-29.2846633 2.09288801 -26.98982107 1.1957929 -24.6875 0.3125 C-23.54933838 -0.13101807 -23.54933838 -0.13101807 -22.38818359 -0.58349609 C-14.28851732 -3.54442222 -8.08555722 -3.3413979 0 0 Z " transform="translate(132.6875,15.6875)" style="fill: #292929;"/><path d="M0 0 C4.08444995 1.55959155 8.16734316 3.12322116 12.25 4.6875 C13.38953125 5.12255859 14.5290625 5.55761719 15.703125 6.00585938 C22.34858544 8.55454449 28.93171827 11.19930402 35.46166992 14.03198242 C40.17912925 15.83103275 43.64215767 15.91115358 48.4765625 14.04296875 C50.33606387 13.19895876 52.18209555 12.32481848 54.015625 11.42578125 C58.15214964 9.44956202 62.41576294 7.88498466 66.703125 6.26953125 C71.06043083 4.59165875 75.34837571 2.76394423 79.63671875 0.91796875 C82 0 82 0 84 0 C84.05383848 2.45862401 84.09359038 4.9160755 84.125 7.375 C84.14175781 8.07367188 84.15851563 8.77234375 84.17578125 9.4921875 C84.19344267 11.32897486 84.10303261 13.16601963 84 15 C81.39351132 17.60648868 79.00958444 18.06977365 75.5 19.1875 C68.7956334 21.44240915 63.5316258 24.63404247 58 29 C57.113125 29.598125 56.22625 30.19625 55.3125 30.8125 C50.32584684 35.52960434 46.63024229 41.4540255 43.6875 47.625 C43.130625 48.73875 42.57375 49.8525 42 51 C41.34 51 40.68 51 40 51 C38.95703125 49.12890625 38.95703125 49.12890625 37.8125 46.5625 C30.46446601 31.46175769 18.55832343 23.87391023 3.2421875 17.9296875 C1 17 1 17 0 16 C-0.07319621 13.30345146 -0.09242537 10.63308542 -0.0625 7.9375 C-0.05798828 7.17888672 -0.05347656 6.42027344 -0.04882812 5.63867188 C-0.0370068 3.75908129 -0.01907078 1.87953101 0 0 Z " transform="translate(79,59)" style="fill: #020202;"/><path d="M0 0 C21.45 0 42.9 0 65 0 C61.72028369 9.83914892 56.12058082 16.08519938 47 21 C37.80467445 24.9625502 27.49057826 25.23119509 18 22 C11.84725466 19.1699663 6.61387706 14.74560707 3 9 C2.01 6.03 1.02 3.06 0 0 Z " transform="translate(34,143)" style="fill: #F9FBFA;"/><path d="M0 0 C21.45 0 42.9 0 65 0 C61.93632366 9.19102902 58.73580557 15.78529585 50 20.4375 C40.29391533 24.58103322 30.08334804 25.52493511 20 22 C10.90540085 17.75305969 3.81903031 11.43525134 0 2 C0 1.34 0 0.68 0 0 Z " transform="translate(141,143)" style="fill: #FBFCFC;"/><path d="M0 0 C10 0 10 0 13 1.75 C16.09877718 5.23612432 17.02414133 6.67222685 16.9375 11.4375 C15.82467569 15.66623237 14.36546545 17.27557559 11 20 C8 21 8 21 0 21 C0 14.07 0 7.14 0 0 Z " transform="translate(111,198)" style="fill: #0F0F0F;"/><path d="M0 0 C5 1 5 1 7.01953125 3.28515625 C7.61121094 4.20167969 8.20289063 5.11820313 8.8125 6.0625 C9.41707031 6.98160156 10.02164063 7.90070313 10.64453125 8.84765625 C11.09183594 9.55792969 11.53914062 10.26820313 12 11 C12.33 7.37 12.66 3.74 13 0 C14.32 0 15.64 0 17 0 C17 6.93 17 13.86 17 21 C15.68 21 14.36 21 13 21 C10.859375 18.59375 10.859375 18.59375 8.75 15.5 C8.04359375 14.4790625 7.3371875 13.458125 6.609375 12.40625 C6.07828125 11.6121875 5.5471875 10.818125 5 10 C4.67 13.63 4.34 17.26 4 21 C2.68 21 1.36 21 0 21 C0 14.07 0 7.14 0 0 Z " transform="translate(148,198)" style="fill: #0A0A0A;"/><path d="M0 0 C4.29 0 8.58 0 13 0 C13 1.32 13 2.64 13 4 C10.03 4 7.06 4 4 4 C4 5.65 4 7.3 4 9 C6.97 9 9.94 9 13 9 C13 10.32 13 11.64 13 13 C10.03 13 7.06 13 4 13 C4 14.32 4 15.64 4 17 C6.97 17 9.94 17 13 17 C13 18.32 13 19.64 13 21 C8.71 21 4.42 21 0 21 C0 14.07 0 7.14 0 0 Z " transform="translate(131,198)" style="fill: #0E0E0E;"/><path d="M0 0 C1.32 0 2.64 0 4 0 C4.06058594 0.98742187 4.12117188 1.97484375 4.18359375 2.9921875 C4.26738281 4.27351562 4.35117188 5.55484375 4.4375 6.875 C4.51871094 8.15117187 4.59992188 9.42734375 4.68359375 10.7421875 C4.79206027 13.88300152 4.79206027 13.88300152 6 16 C8.5 16.25 8.5 16.25 11 16 C12.99616554 14.00383446 12.40983427 10.18298037 12.5625 7.4375 C12.60568359 6.72658203 12.64886719 6.01566406 12.69335938 5.28320312 C12.79971777 3.52238088 12.90038846 1.7612168 13 0 C14.32 0 15.64 0 17 0 C17.08139142 2.39652528 17.14067009 4.79025436 17.1875 7.1875 C17.21263672 7.86103516 17.23777344 8.53457031 17.26367188 9.22851562 C17.32907182 13.69751197 16.75630065 16.45618488 14 20 C10.90826248 21.54586876 8.40570448 21.29359521 5 21 C2.09282927 18.78136971 1.16018357 17.48055071 0 14 C-0.06970052 11.60509014 -0.08448003 9.20832309 -0.0625 6.8125 C-0.05347656 5.54019531 -0.04445313 4.26789063 -0.03515625 2.95703125 C-0.02355469 1.98121094 -0.01195313 1.00539062 0 0 Z " transform="translate(90,198)" style="fill: #090909;"/><path d="M0 0 C0.33 0.66 0.66 1.32 1 2 C0.67 2.66 0.34 3.32 0 4 C-3.0625 4.625 -3.0625 4.625 -6 5 C-6 5.66 -6 6.32 -6 7 C-3.68895182 8.05047644 -1.35416349 9.05007438 1 10 C2 11 2 11 2.3125 14.375 C2 18 2 18 0.4375 19.9375 C-2.8632853 21.37630385 -5.43975457 21.32965235 -9 21 C-9.66 20.34 -10.32 19.68 -11 19 C-9.8125 17.5 -9.8125 17.5 -8 16 C-6.33333333 16 -4.66666667 16 -3 16 C-2.67 15.01 -2.34 14.02 -2 13 C-2.928125 12.896875 -3.85625 12.79375 -4.8125 12.6875 C-8 12 -8 12 -9.875 10.8125 C-11.55877549 8.09975061 -11.39015561 6.12124489 -11 3 C-8.69487967 -1.32210062 -4.28579421 -0.34562857 0 0 Z " transform="translate(66,198)" style="fill: #0B0B0B;"/><path d="M0 0 C5.61 0 11.22 0 17 0 C17 1.32 17 2.64 17 4 C15.02 4 13.04 4 11 4 C11 9.61 11 15.22 11 21 C9.35 21 7.7 21 6 21 C6 15.39 6 9.78 6 4 C4.02 4 2.04 4 0 4 C0 2.68 0 1.36 0 0 Z " transform="translate(169,198)" style="fill: #1C1C1C;"/><path d="M0 0 C5.61 0 11.22 0 17 0 C17 1.32 17 2.64 17 4 C15.02 4 13.04 4 11 4 C11 9.61 11 15.22 11 21 C9.35 21 7.7 21 6 21 C6 15.39 6 9.78 6 4 C4.02 4 2.04 4 0 4 C0 2.68 0 1.36 0 0 Z " transform="translate(70,198)" style="fill: #151515;"/><path d="M0 0 C1.984375 0.18359375 1.984375 0.18359375 4 1 C4.390625 3.28515625 4.390625 3.28515625 4.25 6.0625 C4.21390625 6.98160156 4.1778125 7.90070313 4.140625 8.84765625 C4.07101563 9.91306641 4.07101563 9.91306641 4 11 C5.65 11.33 7.3 11.66 9 12 C9 13.98 9 15.96 9 18 C7.34385343 18.38218767 5.67542976 18.71395102 4 19 C3 18 3 18 2.9375 15.4375 C2.958125 14.633125 2.97875 13.82875 3 13 C2.01 13 1.02 13 0 13 C0 11.02 0 9.04 0 7 C-1.65 7 -3.3 7 -5 7 C-5 8.65 -5 10.3 -5 12 C-5.66 12 -6.32 12 -7 12 C-7 8.37 -7 4.74 -7 1 C-6.34 1 -5.68 1 -5 1 C-5 2.32 -5 3.64 -5 5 C-3.35 5 -1.7 5 0 5 C0 3.35 0 1.7 0 0 Z " transform="translate(83,227)" style="fill: #E5E5E5;"/><path d="M0 0 C2.43871153 0.11342844 4.34835414 0.48705113 6.6875 1.125 C8.68538438 1.47078768 10.68509451 1.80643549 12.6875 2.125 C12.6875 2.785 12.6875 3.445 12.6875 4.125 C10.3775 4.455 8.0675 4.785 5.6875 5.125 C5.70416329 7.62824332 5.70416329 7.62824332 6.6875 10.125 C9.69717326 11.02966321 9.69717326 11.02966321 12.6875 11.125 C12.6875 11.785 12.6875 12.445 12.6875 13.125 C6.26657543 13.61891727 6.26657543 13.61891727 3.5625 11.3125 C2.94375 10.590625 2.325 9.86875 1.6875 9.125 C0.78 8.650625 -0.1275 8.17625 -1.0625 7.6875 C-1.805 7.171875 -2.5475 6.65625 -3.3125 6.125 C-3.6875 3.5 -3.6875 3.5 -3.3125 1.125 C-2.3125 0.125 -2.3125 0.125 0 0 Z " transform="translate(52.3125,225.875)" style="fill: #F8F8F8;"/><path d="M0 0 C5 0 5 0 7.375 2.1875 C9 5 9 5 8.9375 7.625 C7.921111 10.19985213 7.29093722 11.44543546 5 13 C3.35 13 1.7 13 0 13 C0 8.71 0 4.42 0 0 Z " transform="translate(115,202)" style="fill: #F4F4F4;"/><path d="M0 0 C21.45 0 42.9 0 65 0 C64.34 1.32 63.68 2.64 63 4 C63 3.01 63 2.02 63 1 C57.72 1 52.44 1 47 1 C47 2.32 47 3.64 47 5 C44.525 4.505 44.525 4.505 42 4 C42 3.01 42 2.02 42 1 C36.32172528 0.92605919 30.64372829 0.87149805 24.96508789 0.83520508 C23.03177004 0.82008198 21.09848668 0.79958367 19.1652832 0.77368164 C16.39265451 0.73745206 13.62047773 0.72030949 10.84765625 0.70703125 C9.97786636 0.69154739 9.10807648 0.67606354 8.21192932 0.66011047 C5.55474652 0.62300476 5.55474652 0.62300476 2 1 C1.67 1.99 1.34 2.98 1 4 C0.67 2.68 0.34 1.36 0 0 Z " transform="translate(141,143)" style="fill: #EBF3ED;"/><path d="M0 0 C0.25 3.4375 0.25 3.4375 0 7 C-2 7.9375 -2 7.9375 -4 8 C-4.28875 7.34 -4.5775 6.68 -4.875 6 C-5.24625 5.34 -5.6175 4.68 -6 4 C-6.66 4 -7.32 4 -8 4 C-8 6.97 -8 9.94 -8 13 C-8.66 13 -9.32 13 -10 13 C-10 10.03 -10 7.06 -10 4 C-11.32 4 -12.64 4 -14 4 C-14 3.01 -14 2.02 -14 1 C-4.58997722 -0.14806378 -4.58997722 -0.14806378 0 0 Z " transform="translate(152,226)" style="fill: #E5E5E5;"/><path d="M0 0 C2.33294775 -0.04241723 4.66702567 -0.04092937 7 0 C8 1 8 1 8.0625 3.875 C8.041875 4.90625 8.02125 5.9375 8 7 C8 7.99 8 8.98 8 10 C7.01 10.33 6.02 10.66 5 11 C4.01 10.34 3.02 9.68 2 9 C2 9.66 2 10.32 2 11 C1.34 11 0.68 11 0 11 C0 7.37 0 3.74 0 0 Z " transform="translate(178,228)" style="fill: #1C1C1C;"/><path d="M0 0 C3.375 -0.125 3.375 -0.125 7 0 C7.66 0.66 8.32 1.32 9 2 C8.9375 5.0625 8.9375 5.0625 8 8 C5.5 8.75 5.5 8.75 3 9 C2.67 9.66 2.34 10.32 2 11 C1.34 11 0.68 11 0 11 C0 7.37 0 3.74 0 0 Z " transform="translate(118,228)" style="fill: #6F6F6F;"/><path d="M0 0 C0.99 0 1.98 0 3 0 C4.16796875 1.8984375 4.16796875 1.8984375 5.1875 4.375 C5.53167969 5.18710938 5.87585938 5.99921875 6.23046875 6.8359375 C7 9 7 9 7 11 C4.98177083 10.70703125 2.96354167 10.4140625 0.9453125 10.12109375 C-1.08140667 9.8315703 -1.08140667 9.8315703 -3 11 C-2.45424979 7.08879018 -1.86072581 3.51470431 0 0 Z " transform="translate(100,228)" style="fill: #131313;"/><path d="M0 0 C2.95529457 0.36040178 3.75137927 1.02476855 5.5625 3.3125 C4.5725 3.3125 3.5825 3.3125 2.5625 3.3125 C2.5625 4.9625 2.5625 6.6125 2.5625 8.3125 C0.9125 8.6425 -0.7375 8.9725 -2.4375 9.3125 C-3.5625 5.9375 -3.5625 5.9375 -4.4375 2.3125 C-2.4375 0.3125 -2.4375 0.3125 0 0 Z " transform="translate(101.4375,236.6875)" style="fill: #E7E7E7;"/><path d="M0 0 C0.66 0 1.32 0 2 0 C2 1.32 2 2.64 2 4 C3.65 4 5.3 4 7 4 C7 2.68 7 1.36 7 0 C7.66 0 8.32 0 9 0 C9 3.63 9 7.26 9 11 C8.34 11 7.68 11 7 11 C7 9.35 7 7.7 7 6 C5.35 6 3.7 6 2 6 C2 7.65 2 9.3 2 11 C1.34 11 0.68 11 0 11 C0 7.37 0 3.74 0 0 Z " transform="translate(76,228)" style="fill: #181818;"/><path d="M0 0 C0 0.66 0 1.32 0 2 C0.66 2 1.32 2 2 2 C2 5.63 2 9.26 2 13 C1.67 13 1.34 13 1 13 C0.67 11.02 0.34 9.04 0 7 C-0.9590625 7.2784375 -0.9590625 7.2784375 -1.9375 7.5625 C-2.618125 7.706875 -3.29875 7.85125 -4 8 C-5 7 -5 7 -5.125 4 C-4.93524418 -0.55413973 -4.76430409 0 0 0 Z " transform="translate(176,226)" style="fill: #F1F1F1;"/><path d="M0 0 C2.31 0 4.62 0 7 0 C7 0.66 7 1.32 7 2 C5.35 2 3.7 2 2 2 C2 2.66 2 3.32 2 4 C3.65 4 5.3 4 7 4 C7 4.66 7 5.32 7 6 C5.35 6 3.7 6 2 6 C2 6.99 2 7.98 2 9 C3.65 9 5.3 9 7 9 C7 9.66 7 10.32 7 11 C4.69 11 2.38 11 0 11 C0 7.37 0 3.74 0 0 Z " transform="translate(159,228)" style="fill: #0B0B0B;"/><path d="M0 0 C0.928125 0.20625 1.85625 0.4125 2.8125 0.625 C2.8125 1.285 2.8125 1.945 2.8125 2.625 C0.5025 2.955 -1.8075 3.285 -4.1875 3.625 C-4.17083671 6.12824332 -4.17083671 6.12824332 -3.1875 8.625 C-0.17782674 9.52966321 -0.17782674 9.52966321 2.8125 9.625 C2.8125 10.285 2.8125 10.945 2.8125 11.625 C-3.51347793 11.98307422 -3.51347793 11.98307422 -6.1875 10.5625 C-7.82128851 7.39703476 -7.04017564 4.97479714 -6.1875 1.625 C-3.1875 -0.375 -3.1875 -0.375 0 0 Z " transform="translate(62.1875,227.375)" style="fill: #191919;"/><path d="M0 0 C0.99 0 1.98 0 3 0 C3 4.62 3 9.24 3 14 C2.67 13.01 2.34 12.02 2 11 C1.01 11 0.02 11 -1 11 C-1 9.02 -1 7.04 -1 5 C-2.65 5 -4.3 5 -6 5 C-6 4.67 -6 4.34 -6 4 C-4.02 4 -2.04 4 0 4 C0 2.68 0 1.36 0 0 Z " transform="translate(87,198)" style="fill: #EDEDED;"/><path d="M0 0 C1.67542976 0.28604898 3.34385343 0.61781233 5 1 C5 2.98 5 4.96 5 7 C3.34385343 7.38218767 1.67542976 7.71395102 0 8 C-1 7 -1 7 -1.125 4 C-1 1 -1 1 0 0 Z " transform="translate(111,226)" style="fill: #F1F1F1;"/><path d="M0 0 C1.67542976 0.28604898 3.34385343 0.61781233 5 1 C5 2.98 5 4.96 5 7 C3.34385343 7.38218767 1.67542976 7.71395102 0 8 C-1 7 -1 7 -1.125 4 C-1 1 -1 1 0 0 Z " transform="translate(2,226)" style="fill: #F0F0F0;"/><path d="M0 0 C1.67542976 0.28604898 3.34385343 0.61781233 5 1 C5 2.98 5 4.96 5 7 C3.34385343 7.38218767 1.67542976 7.71395102 0 8 C-1 7 -1 7 -1.125 4 C-1 1 -1 1 0 0 Z " transform="translate(111,177)" style="fill: #F5F5F5;"/><path d="M0 0 C1.67542976 0.28604898 3.34385343 0.61781233 5 1 C5 2.98 5 4.96 5 7 C3.34385343 7.38218767 1.67542976 7.71395102 0 8 C-1 7 -1 7 -1.125 4 C-1 1 -1 1 0 0 Z " transform="translate(2,177)" style="fill: #EEEEEE;"/><path d="M0 0 C1.67542976 0.28604898 3.34385343 0.61781233 5 1 C5 2.98 5 4.96 5 7 C3.34385343 7.38218767 1.67542976 7.71395102 0 8 C-1 7 -1 7 -1.125 4 C-1 1 -1 1 0 0 Z " transform="translate(99,177)" style="fill: #F5F5F5;"/><path d="M0 0 C1.67542976 0.28604898 3.34385343 0.61781233 5 1 C5 2.98 5 4.96 5 7 C3.35 7.33 1.7 7.66 0 8 C-0.38063221 5.6739143 -0.71269945 3.33944736 -1 1 C-0.67 0.67 -0.34 0.34 0 0 Z " transform="translate(14,226)" style="fill: #F0F0F0;"/><path d="M0 0 C1.65 0.33 3.3 0.66 5 1 C5 2.98 5 4.96 5 7 C3.34385343 7.38218767 1.67542976 7.71395102 0 8 C-0.33 7.67 -0.66 7.34 -1 7 C-0.71269945 4.66055264 -0.38063221 2.3260857 0 0 Z " transform="translate(123,165)" style="fill: #F0F0F0;"/><path d="M0 0 C1.67542976 0.28604898 3.34385343 0.61781233 5 1 C5.25 3.9375 5.25 3.9375 5 7 C3.125 8 3.125 8 1 8 C-1 6 -1 6 -1.1875 3.4375 C-1 1 -1 1 0 0 Z " transform="translate(38,238)" style="fill: #F6F6F6;"/><path d="M0 0 C1.67542976 0.28604898 3.34385343 0.61781233 5 1 C5.25 3.9375 5.25 3.9375 5 7 C3.125 7.9375 3.125 7.9375 1 8 C0.34 7.67 -0.32 7.34 -1 7 C-1.1875 4 -1.1875 4 -1 1 C-0.67 0.67 -0.34 0.34 0 0 Z " transform="translate(208,238)" style="fill: #F5F5F5;"/><path d="M0 0 C0.625 2.875 0.625 2.875 1 6 C-1 8 -1 8 -3.125 8 C-3.74375 7.67 -4.3625 7.34 -5 7 C-5.3125 4 -5.3125 4 -5 1 C-4 0 -4 0 0 0 Z " transform="translate(176,238)" style="fill: #F6F6F6;"/><path d="M0 0 C0.61875 0.33 1.2375 0.66 1.875 1 C2.125 4.0625 2.125 4.0625 1.875 7 C0.21885343 7.38218767 -1.44957024 7.71395102 -3.125 8 C-4.125 7 -4.125 7 -4.3125 4.5625 C-4.07539476 1.32206176 -3.405071 0 0 0 Z " transform="translate(17.125,201)" style="fill: #F1F1F1;"/><path d="M0 0 C0.61875 0.33 1.2375 0.66 1.875 1 C2.125 4.0625 2.125 4.0625 1.875 7 C0.225 7.33 -1.425 7.66 -3.125 8 C-3.75 5.125 -3.75 5.125 -4.125 2 C-2.125 0 -2.125 0 0 0 Z " transform="translate(138.125,177)" style="fill: #F4F4F4;"/><path d="M0 0 C1.67542976 0.28604898 3.34385343 0.61781233 5 1 C5.25 3.375 5.25 3.375 5 6 C3.125 7.4375 3.125 7.4375 1 8 C-1 6 -1 6 -1.1875 3.4375 C-1 1 -1 1 0 0 Z " transform="translate(220,226)" style="fill: #F4F4F4;"/><path d="M0 0 C1.65 0 3.3 0 5 0 C5.625 2.875 5.625 2.875 6 6 C5.34 6.66 4.68 7.32 4 8 C2 7.875 2 7.875 0 7 C-1.25 4.9375 -1.25 4.9375 -2 3 C0.475 3.495 0.475 3.495 3 4 C3 3.34 3 2.68 3 2 C2.01 1.67 1.02 1.34 0 1 C0 0.67 0 0.34 0 0 Z " transform="translate(62,226)" style="fill: #F1F1F1;"/><path d="M0 0 C1.67542976 0.28604898 3.34385343 0.61781233 5 1 C5 2.65 5 4.3 5 6 C3.34385343 6.38218767 1.67542976 6.71395102 0 7 C-1 6 -1 6 -1.125 3.5 C-1 1 -1 1 0 0 Z " transform="translate(2,129)" style="fill: #F1F1F1;"/><path d="M0 0 C1.67542976 0.28604898 3.34385343 0.61781233 5 1 C5 2.65 5 4.3 5 6 C3.34385343 6.38218767 1.67542976 6.71395102 0 7 C-1 6 -1 6 -1.125 3.5 C-1 1 -1 1 0 0 Z " transform="translate(14,117)" style="fill: #F5F5F5;"/><path d="M0 0 C1.67542976 0.28604898 3.34385343 0.61781233 5 1 C5 2.65 5 4.3 5 6 C3.35 6.33 1.7 6.66 0 7 C-0.38133299 5.0085944 -0.71325582 3.00720923 -1 1 C-0.67 0.67 -0.34 0.34 0 0 Z " transform="translate(38,117)" style="fill: #F6F6F6;"/><path d="M0 0 C2.33294775 -0.04241723 4.66702567 -0.04092937 7 0 C8 1 8 1 8.0625 4.0625 C8.041875 5.031875 8.02125 6.00125 8 7 C6 5 6 5 6 3 C4.01954441 2.33820153 4.01954441 2.33820153 2 2 C2.33 3.98 2.66 5.96 3 8 C2.01 8.33 1.02 8.66 0 9 C0 6.03 0 3.06 0 0 Z " transform="translate(178,228)" style="fill: #070707;"/><path d="M0 0 C2.97 0 5.94 0 9 0 C9 0.66 9 1.32 9 2 C8.01 2 7.02 2 6 2 C6 4.97 6 7.94 6 11 C5.34 11 4.68 11 4 11 C4 8.03 4 5.06 4 2 C2.68 2 1.36 2 0 2 C0 1.34 0 0.68 0 0 Z " transform="translate(138,228)" style="fill: #212121;"/><path d="M0 0 C1.125 4.75 1.125 4.75 0 7 C-2.5625 6.625 -2.5625 6.625 -5 6 C-5.042721 4.33388095 -5.04063832 2.66617115 -5 1 C-4 0 -4 0 0 0 Z " transform="translate(91,117)" style="fill: #F6F6F6;"/><path d="M0 0 C0 2.31 0 4.62 0 7 C-1.65 7 -3.3 7 -5 7 C-5.04254356 5.00045254 -5.04080783 2.99958364 -5 1 C-4 0 -4 0 0 0 Z " transform="translate(67,117)" style="fill: #F5F5F5;"/><path d="M0 0 C1.67542976 0.28604898 3.34385343 0.61781233 5 1 C4.67 2.65 4.34 4.3 4 6 C2.68 6 1.36 6 0 6 C-0.38218767 4.34385343 -0.71395102 2.67542976 -1 1 C-0.67 0.67 -0.34 0.34 0 0 Z " transform="translate(14,81)" style="fill: #F5F5F5;"/><path d="M0 0 C0 2.31 0 4.62 0 7 C-1.65 6.67 -3.3 6.34 -5 6 C-5.042721 4.33388095 -5.04063832 2.66617115 -5 1 C-4 0 -4 0 0 0 Z " transform="translate(79,105)" style="fill: #F6F6F6;"/><path d="M0 0 C2.31 0 4.62 0 7 0 C6.360625 0.226875 5.72125 0.45375 5.0625 0.6875 C2.72806339 1.85250896 2.72806339 1.85250896 2.25 4.625 C2.1675 5.40875 2.085 6.1925 2 7 C2.99 7.33 3.98 7.66 5 8 C3.625 9.5 3.625 9.5 2 11 C1.34 11 0.68 11 0 11 C0 7.37 0 3.74 0 0 Z " transform="translate(118,228)" style="fill: #161616;"/><path d="M0 0 C2.475 0.495 2.475 0.495 5 1 C5.25 3.4375 5.25 3.4375 5 6 C3.0625 6.875 3.0625 6.875 1 7 C0 6 0 6 -0.0625 2.9375 C-0.041875 1.968125 -0.02125 0.99875 0 0 Z " transform="translate(26,81)" style="fill: #F6F6F6;"/><path d="M0 0 C0.1875 2.375 0.1875 2.375 0 5 C-0.99 5.66 -1.98 6.32 -3 7 C-3.020625 6.195625 -3.04125 5.39125 -3.0625 4.5625 C-3.371875 3.716875 -3.68125 2.87125 -4 2 C-7.51381119 1.09308537 -7.51381119 1.09308537 -11 1 C-11 0.67 -11 0.34 -11 0 C-6.98195309 -0.84098656 -3.98196457 -1.05404945 0 0 Z " transform="translate(189,227)" style="fill: #D3D3D3;"/><path d="M0 0 C2.0625 0.125 2.0625 0.125 4 1 C4.5 3.5 4.5 3.5 4 6 C2.0625 6.875 2.0625 6.875 0 7 C-1 6 -1 6 -1.125 3.5 C-1 1 -1 1 0 0 Z " transform="translate(184,105)" style="fill: #F4F4F4;"/><path d="M0 0 C1.98 0 3.96 0 6 0 C6 2.31 6 4.62 6 7 C4.68 7 3.36 7 2 7 C2.04125 6.030625 2.0825 5.06125 2.125 4.0625 C2.063125 2.5465625 2.063125 2.5465625 2 1 C1.34 0.67 0.68 0.34 0 0 Z " transform="translate(169,202)" style="fill: #EFEFEF;"/><path d="M0 0 C2.97 0 5.94 0 9 0 C9 0.33 9 0.66 9 1 C7.35 1 5.7 1 4 1 C4 1.99 4 2.98 4 4 C5.65 4 7.3 4 9 4 C9 4.33 9 4.66 9 5 C6.03 5 3.06 5 0 5 C0 3.35 0 1.7 0 0 Z " transform="translate(135,202)" style="fill: #CCCCCC;"/><path d="M0 0 C2.0625 1.1875 2.0625 1.1875 4 3 C3.75 5.6875 3.75 5.6875 3 8 C2.01 8 1.02 8 0 8 C-1.125 2.25 -1.125 2.25 0 0 Z " transform="translate(196,104)" style="fill: #F5F7F6;"/><path d="M0 0 C0.33 0.99 0.66 1.98 1 3 C-3.34285714 7 -3.34285714 7 -5 7 C-5.04254356 5.00045254 -5.04080783 2.99958364 -5 1 C-4 0 -4 0 0 0 Z " transform="translate(91,153)" style="fill: #F1F4F2;"/><path d="M0 0 C2.475 0.495 2.475 0.495 5 1 C4.67 2.65 4.34 4.3 4 6 C2.68 6 1.36 6 0 6 C0 4.02 0 2.04 0 0 Z " transform="translate(26,69)" style="fill: #F5F5F5;"/><path d="M0 0 C2 3 2 3 3 7 C0.36 6.34 -2.28 5.68 -5 5 C-4.34 4.67 -3.68 4.34 -3 4 C-3.33 3.01 -3.66 2.02 -4 1 C-3 0 -3 0 0 0 Z " transform="translate(104,232)" style="fill: #4B4B4B;"/><path d="M0 0 C2 0.1875 2 0.1875 4 1 C4.75 3.0625 4.75 3.0625 5 5 C3.35 5.33 1.7 5.66 0 6 C-0.38218767 4.34385343 -0.71395102 2.67542976 -1 1 C-0.67 0.67 -0.34 0.34 0 0 Z " transform="translate(51,33)" style="fill: #ECECEC;"/><path d="M0 0 C2 0.375 2 0.375 4 1 C4 3.42797311 3.49914315 5.62907005 3 8 C2.01 7.67 1.02 7.34 0 7 C-0.1875 3.4375 -0.1875 3.4375 0 0 Z " transform="translate(99,237)" style="fill: #FBFBFB;"/><path d="M0 0 C1.98 0.495 1.98 0.495 4 1 C3.67 2.65 3.34 4.3 3 6 C1.68 5.67 0.36 5.34 -1 5 C-0.67 3.35 -0.34 1.7 0 0 Z " transform="translate(39,45)" style="fill: #F6F6F6;"/><path d="M0 0 C3.96 0 7.92 0 12 0 C12 0.33 12 0.66 12 1 C11.195625 0.938125 10.39125 0.87625 9.5625 0.8125 C8.716875 0.874375 7.87125 0.93625 7 1 C6.67 1.99 6.34 2.98 6 4 C4 3.625 4 3.625 2 3 C2 2.34 2 1.68 2 1 C1.34 0.67 0.68 0.34 0 0 Z " transform="translate(60,96)" style="fill: #CBE0D0;"/><path d="M0 0 C0.33 0 0.66 0 1 0 C1.33 2.31 1.66 4.62 2 7 C0.68 7 -0.64 7 -2 7 C-1.67 8.65 -1.34 10.3 -1 12 C-1.99 11.67 -2.98 11.34 -4 11 C-4.1875 7.4375 -4.1875 7.4375 -4 4 C-2.68 4.33 -1.36 4.66 0 5 C0 3.35 0 1.7 0 0 Z " transform="translate(78,234)" style="fill: #E1E1E1;"/><path d="M0 0 C0.99 0 1.98 0 3 0 C3.33 1.98 3.66 3.96 4 6 C2.35 5.67 0.7 5.34 -1 5 C-0.67 3.35 -0.34 1.7 0 0 Z " transform="translate(75,69)" style="fill: #F4F4F4;"/><path d="M0 0 C1.98362069 2.91708924 1.9876191 4.12380904 1.625 7.75 C1.41875 8.8225 1.2125 9.895 1 11 C0.34 11 -0.32 11 -1 11 C-1.33 8.36 -1.66 5.72 -2 3 C-1.34 3 -0.68 3 0 3 C0 2.01 0 1.02 0 0 Z " transform="translate(17,150)" style="fill: #E8EEE9;"/><path d="M0 0 C0.33 1.32 0.66 2.64 1 4 C-0.32 3.67 -1.64 3.34 -3 3 C-3 3.99 -3 4.98 -3 6 C-4.32 5.67 -5.64 5.34 -7 5 C-6.67 4.01 -6.34 3.02 -6 2 C-2.9375 1.8125 -2.9375 1.8125 0 2 C0 1.34 0 0.68 0 0 Z " transform="translate(66,200)" style="fill: #E5E5E5;"/><path d="M0 0 C0.66 0.33 1.32 0.66 2 1 C0 3 0 3 -3 3 C-3 4.32 -3 5.64 -3 7 C-5.475 6.01 -5.475 6.01 -8 5 C-5.45378681 2.99940392 -3.01962385 1.20784954 0 0 Z " transform="translate(93,177)" style="fill: #E0EDE3;"/><path d="M0 0 C0.99 0.33 1.98 0.66 3 1 C2.67 2.65 2.34 4.3 2 6 C1.01 5.67 0.02 5.34 -1 5 C-0.67 3.35 -0.34 1.7 0 0 Z " transform="translate(124,239)" style="fill: #FDFDFD;"/><path d="M0 0 C0.99 0.33 1.98 0.66 3 1 C2.67 2.65 2.34 4.3 2 6 C1.01 5.67 0.02 5.34 -1 5 C-0.67 3.35 -0.34 1.7 0 0 Z " transform="translate(112,239)" style="fill: #FDFDFD;"/><path d="M0 0 C0.99 0.33 1.98 0.66 3 1 C2.67 2.65 2.34 4.3 2 6 C1.01 5.67 0.02 5.34 -1 5 C-0.67 3.35 -0.34 1.7 0 0 Z " transform="translate(3,239)" style="fill: #FDFDFD;"/><path d="M0 0 C0.99 0.33 1.98 0.66 3 1 C2.67 2.65 2.34 4.3 2 6 C1.01 5.67 0.02 5.34 -1 5 C-0.67 3.35 -0.34 1.7 0 0 Z " transform="translate(3,178)" style="fill: #FCFCFC;"/><path d="M0 0 C1.66611905 -0.042721 3.33382885 -0.04063832 5 0 C6 1 6 1 6.0625 3.5625 C6.041875 4.366875 6.02125 5.17125 6 6 C3.97945196 4.35830472 1.97956942 2.69088222 0 1 C0 0.67 0 0.34 0 0 Z " transform="translate(146,153)" style="fill: #EBF0EC;"/><path d="M0 0 C2 0.1875 2 0.1875 4 1 C4.25 3.5625 4.25 3.5625 4 6 C2 5.8125 2 5.8125 0 5 C-0.25 2.4375 -0.25 2.4375 0 0 Z " transform="translate(74,57)" style="fill: #F3F3F3;"/><path d="M0 0 C2.375 -0.1875 2.375 -0.1875 5 0 C5.66 0.99 6.32 1.98 7 3 C6.1875 6.1875 6.1875 6.1875 5 9 C4.67 9 4.34 9 4 9 C4 6.36 4 3.72 4 1 C2.68 1.33 1.36 1.66 0 2 C0 1.34 0 0.68 0 0 Z " transform="translate(50,226)" style="fill: #E3E3E3;"/><path d="M0 0 C0.99 0.33 1.98 0.66 3 1 C2.67 2.65 2.34 4.3 2 6 C1.01 5.67 0.02 5.34 -1 5 C-0.67 3.35 -0.34 1.7 0 0 Z " transform="translate(15,178)" style="fill: #FDFDFD;"/><path d="M0 0 C2.02054804 1.64169528 4.02043058 3.30911778 6 5 C6 5.33 6 5.66 6 6 C4.35 6 2.7 6 1 6 C0.67 4.02 0.34 2.04 0 0 Z " transform="translate(25,167)" style="fill: #EDF3EE;"/><path d="M0 0 C0.99 0.33 1.98 0.66 3 1 C2.67 2.65 2.34 4.3 2 6 C1.01 5.67 0.02 5.34 -1 5 C-0.67 3.35 -0.34 1.7 0 0 Z " transform="translate(124,166)" style="fill: #FBFBFB;"/><path d="M0 0 C2.475 0.495 2.475 0.495 5 1 C4.67 1.99 4.34 2.98 4 4 C2.68 4 1.36 4 0 4 C0 2.68 0 1.36 0 0 Z " transform="translate(180,230)" style="fill: #DEDEDE;"/><path d="M0 0 C3.1875 0.3125 3.1875 0.3125 6 1 C6 1.66 6 2.32 6 3 C3.03 3 0.06 3 -3 3 C-2.01 2.01 -1.02 1.02 0 0 Z " transform="translate(59,227)" style="fill: #282828;"/><path d="M0 0 C0.99 0.33 1.98 0.66 3 1 C3 2.32 3 3.64 3 5 C1.68 5 0.36 5 -1 5 C-0.67 3.35 -0.34 1.7 0 0 Z " transform="translate(112,227)" style="fill: #FDFDFD;"/><path d="M0 0 C1.32 0.33 2.64 0.66 4 1 C3.6875 3 3.6875 3 3 5 C2.01 5 1.02 5 0 5 C0 3.35 0 1.7 0 0 Z " transform="translate(87,227)" style="fill: #FEFEFE;"/><path d="M0 0 C0.99 0.33 1.98 0.66 3 1 C3 2.32 3 3.64 3 5 C1.68 5 0.36 5 -1 5 C-0.67 3.35 -0.34 1.7 0 0 Z " transform="translate(15,227)" style="fill: #FDFDFD;"/><path d="M0 0 C0.99 0.33 1.98 0.66 3 1 C3 2.32 3 3.64 3 5 C1.68 5 0.36 5 -1 5 C-0.67 3.35 -0.34 1.7 0 0 Z " transform="translate(3,227)" style="fill: #FCFCFC;"/><path d="M0 0 C0.99 0.33 1.98 0.66 3 1 C3 2.32 3 3.64 3 5 C1.68 5 0.36 5 -1 5 C-0.67 3.35 -0.34 1.7 0 0 Z " transform="translate(209,45)" style="fill: #F5F5F5;"/><path d="M0 0 C0.99 0 1.98 0 3 0 C3 1.65 3 3.3 3 5 C1.68 4.67 0.36 4.34 -1 4 C-0.6875 2 -0.6875 2 0 0 Z " transform="translate(39,9)" style="fill: #F6F6F6;"/><path d="M0 0 C0.99 0.33 1.98 0.66 3 1 C3 2.32 3 3.64 3 5 C1.68 4.67 0.36 4.34 -1 4 C-0.67 2.68 -0.34 1.36 0 0 Z " transform="translate(15,203)" style="fill: #FDFDFD;"/><path d="M0 0 C1.32 0.33 2.64 0.66 4 1 C3.67 2.32 3.34 3.64 3 5 C2.01 4.67 1.02 4.34 0 4 C0 2.68 0 1.36 0 0 Z " transform="translate(208,191)" style="fill: #FCFCFC;"/><path d="M0 0 C0.99 0 1.98 0 3 0 C2.67 1.65 2.34 3.3 2 5 C1.01 4.67 0.02 4.34 -1 4 C-0.6875 2 -0.6875 2 0 0 Z " transform="translate(124,179)" style="fill: #FDFDFD;"/><path d="M0 0 C0.99 0.33 1.98 0.66 3 1 C2.6875 3 2.6875 3 2 5 C1.01 5 0.02 5 -1 5 C-0.67 3.35 -0.34 1.7 0 0 Z " transform="translate(3,130)" style="fill: #FCFCFC;"/></svg>