<svg version="1.1" id="Layer_1" xmlns="http://www.w3.org/2000/svg" xmlns:xlink="http://www.w3.org/1999/xlink" x="0px" y="0px"
	 width="100%" viewBox="0 0 160 160" enable-background="new 0 0 160 160" xml:space="preserve">
<path fill="#000000" opacity="1.000000" stroke="none" 
	d="
M85.000000,161.000000 
	C57.666668,161.000000 30.833185,160.960480 4.000264,161.065155 
	C1.499586,161.074905 0.932303,160.499557 0.936421,157.999908 
	C1.020995,106.666725 1.020990,55.333324 0.936429,4.000134 
	C0.932311,1.500587 1.500386,0.932299 4.000075,0.936418 
	C55.333263,1.020995 106.666664,1.020989 157.999847,0.936432 
	C160.499359,0.932315 161.067734,1.500323 161.063599,4.000056 
	C160.979019,55.333248 160.979004,106.666649 161.063553,157.999832 
	C161.067688,160.499313 160.500916,161.076813 157.999771,161.065521 
	C133.833572,160.956329 109.666687,161.000000 85.000000,161.000000 
z"/>
<path fill="#40D68F" opacity="1.000000" stroke="none" 
	d="
M23.765715,139.318085 
	C23.985033,138.215652 24.010172,137.476959 24.115265,136.377213 
	C26.195026,134.681519 28.246246,133.517395 31.156948,134.120514 
	C35.665768,137.362534 40.676361,137.974106 45.905476,139.110901 
	C55.323524,142.759460 64.379471,144.667236 73.469437,138.662842 
	C73.975830,136.901672 73.820999,135.349594 74.944542,133.797028 
	C76.417542,133.179901 77.373756,133.582031 78.490845,134.691467 
	C79.491089,136.338013 79.546028,137.768448 79.497398,139.654068 
	C79.746597,141.557907 79.575272,143.021973 79.421936,144.936920 
	C79.204628,147.019028 78.519501,148.314346 76.525742,149.165939 
	C71.624474,149.434738 67.165802,149.927704 62.269867,149.507050 
	C50.222988,146.819519 38.729168,143.665344 26.762897,140.879486 
	C25.814417,140.982529 25.275715,140.918884 24.384315,140.567810 
	C23.870996,140.142899 23.721266,139.912369 23.765715,139.318085 
z"/>
<path fill="#6BE9BB" opacity="1.000000" stroke="none" 
	d="
M31.374706,135.068451 
	C28.761480,134.288147 27.029488,136.708359 24.501831,136.040695 
	C24.476801,135.234924 24.758379,134.453705 25.114468,133.356049 
	C28.867344,131.227325 32.452450,129.234146 36.745701,131.558456 
	C39.096546,132.831177 40.882626,131.478012 42.217346,129.536606 
	C43.450333,127.743187 44.230083,125.701050 44.905949,123.666122 
	C46.944851,117.527359 51.187920,113.240791 56.627716,109.476761 
	C57.408596,109.170074 57.877140,109.079338 58.713051,109.086662 
	C59.293022,109.189247 59.518131,109.260704 60.042816,109.518524 
	C60.856926,110.192474 61.222332,110.781670 61.624710,111.745850 
	C61.823036,112.518944 61.855907,112.972099 61.785294,113.765381 
	C61.563904,114.764069 61.290565,115.387909 60.866955,116.323303 
	C60.394176,117.260674 60.001991,117.843140 59.358353,118.691711 
	C55.434128,122.475578 53.859493,127.331650 51.163250,131.472717 
	C48.026562,136.290237 43.989136,139.016953 37.884350,138.028870 
	C35.430676,137.631729 34.168835,135.230957 31.374706,135.068451 
z"/>
<path fill="#CFF7E8" opacity="1.000000" stroke="none" 
	d="
M29.181692,125.261780 
	C28.659111,120.989586 31.757551,119.268578 34.062531,116.834824 
	C39.785503,110.792130 46.395573,106.213898 54.169010,103.292877 
	C56.196228,102.531113 58.241802,101.818176 60.635445,101.039658 
	C61.934994,101.791306 61.657539,102.780380 61.349655,104.039993 
	C61.207108,104.500908 61.146942,104.683022 61.004204,105.137680 
	C60.783054,105.967422 60.680676,106.531120 60.558666,107.397476 
	C60.404572,107.874390 60.310585,108.055878 59.981476,108.439041 
	C59.367481,108.824516 58.967152,108.931183 58.232971,109.004204 
	C56.332413,109.202126 55.502144,110.821449 53.657959,111.170685 
	C52.531738,111.451050 51.655972,111.364059 50.594681,111.901550 
	C49.718155,112.285339 49.129124,112.535904 48.278969,113.007706 
	C43.291985,115.676201 39.692085,119.458588 35.930763,123.606384 
	C34.967571,124.588066 34.166275,125.189613 32.904549,125.809441 
	C31.458071,126.217476 30.424784,126.123749 29.181692,125.261780 
z"/>
<path fill="#248D44" opacity="1.000000" stroke="none" 
	d="
M76.057732,148.602386 
	C77.429184,147.849976 77.931725,146.922195 77.957352,145.317841 
	C78.792946,144.428177 79.703674,144.267548 81.017670,144.319550 
	C82.096634,144.519943 82.723862,144.870804 83.554680,145.590973 
	C84.135033,146.222137 84.439522,146.608749 84.954002,147.302185 
	C93.681053,150.320068 102.095299,148.455566 110.517281,147.108887 
	C113.938942,146.561768 117.260406,145.387146 121.181717,145.454010 
	C125.595795,145.178986 129.182648,142.567230 133.733246,143.504013 
	C135.487152,146.354980 133.790512,147.927811 131.744766,149.713776 
	C128.861649,150.804703 126.113548,150.781219 123.261703,151.973297 
	C119.236366,152.998444 115.658997,152.462402 112.108986,151.427963 
	C111.465736,151.325470 112.115898,152.169128 112.282478,151.523605 
	C112.315498,151.395615 112.473244,151.496429 112.782059,151.523315 
	C113.752449,151.607803 114.297745,152.070755 114.205246,153.398163 
	C111.939194,153.750961 109.872368,154.776672 107.412766,153.855377 
	C105.327812,153.137436 103.515488,153.640945 101.345367,153.486115 
	C95.736313,153.487244 90.525307,153.530075 84.935959,153.361359 
	C82.758820,152.849274 81.036667,152.059891 78.794861,151.949615 
	C78.016235,151.725098 77.607071,151.513321 76.965256,151.020782 
	C76.243561,150.251953 75.970619,149.633865 76.057732,148.602386 
z"/>
<path fill="#F1D8CE" opacity="1.000000" stroke="none" 
	d="
M46.480949,41.064720 
	C45.550285,35.431171 49.017097,31.513968 52.769604,29.079311 
	C59.479626,24.725801 65.370705,18.396816 74.588989,18.085037 
	C75.887199,18.888376 76.052666,19.866856 75.845505,21.297318 
	C74.323921,24.348507 71.269951,23.926455 68.794960,25.301289 
	C68.170441,25.681068 67.833931,25.916004 67.287155,26.350843 
	C66.679832,26.952646 66.311050,27.379820 65.914116,28.138865 
	C65.562576,28.941118 65.324265,29.480137 64.978348,30.314014 
	C64.733253,30.778872 64.617935,30.958200 64.275558,31.370014 
	C63.868229,31.727070 63.687954,31.851637 63.210403,32.121010 
	C61.853558,32.585873 60.825893,33.011311 59.409767,33.290176 
	C56.624176,33.649395 54.399258,34.323975 53.248154,37.231270 
	C52.366486,38.986752 51.516113,40.353111 49.778393,41.378796 
	C48.542103,41.618118 47.676872,41.314148 46.480949,41.064720 
z"/>
<path fill="#8AEDC8" opacity="1.000000" stroke="none" 
	d="
M47.788277,112.288589 
	C48.512215,111.747093 48.969257,111.443756 49.709335,111.106277 
	C50.872868,111.035507 51.696785,110.784576 52.721146,110.185684 
	C54.429455,109.331421 55.905476,108.704491 57.732880,108.097885 
	C58.391151,108.490791 58.520302,108.917198 58.286896,109.693436 
	C51.467224,114.243378 47.279930,120.207520 44.856163,127.721687 
	C42.786266,134.138763 40.350075,134.858368 34.348728,131.973846 
	C31.404978,130.558945 28.982939,134.258698 25.589764,133.029480 
	C25.240765,132.110321 25.292553,131.181030 25.662624,130.094208 
	C28.457071,129.350281 30.269934,127.602608 32.665169,126.193848 
	C40.667244,126.424278 40.667244,126.424278 43.748028,117.181564 
	C44.544823,114.955757 46.245308,113.922462 47.788277,112.288589 
z"/>
<path fill="#2B8342" opacity="1.000000" stroke="none" 
	d="
M52.208679,154.225388 
	C44.718239,154.374771 37.617897,153.459274 30.235001,152.453430 
	C29.080469,150.417084 28.021742,148.722992 29.273464,146.420181 
	C34.456387,144.923965 39.007553,147.044937 43.675812,147.641449 
	C49.679909,148.408661 55.858414,148.314926 61.884239,150.892120 
	C62.235146,151.850723 62.035366,152.330521 61.157974,152.866348 
	C59.298138,153.583267 57.696487,153.327850 55.807846,153.763412 
	C54.475754,154.074112 53.552807,154.530334 52.208679,154.225388 
z"/>
<path fill="#AEE1D4" opacity="1.000000" stroke="none" 
	d="
M114.431717,106.982506 
	C119.907677,109.465462 124.412155,112.759575 128.360107,116.829643 
	C129.285339,117.783485 130.305450,118.644226 130.064255,120.542419 
	C130.416763,121.416969 130.959015,121.491264 131.643738,121.830307 
	C131.867447,122.456223 131.915634,122.879929 131.977112,123.624039 
	C129.922836,125.913750 128.213409,124.176437 126.076630,123.238014 
	C125.125824,122.635773 124.684967,122.070427 124.433807,120.994347 
	C124.752686,119.051559 124.893608,117.556793 122.391518,117.135513 
	C118.201599,116.128052 115.074829,114.043617 112.513199,110.595772 
	C112.461510,108.893829 112.848434,107.736130 114.431717,106.982506 
z"/>
<path fill="#D77F2C" opacity="1.000000" stroke="none" 
	d="
M117.676849,63.617714 
	C119.138878,67.677551 117.504631,74.496651 114.420631,76.941261 
	C113.725494,76.834129 113.464157,76.505989 113.216240,75.793976 
	C112.761047,73.627907 110.879639,73.057953 109.697456,71.433929 
	C108.582939,69.575615 108.478912,67.893082 108.939224,65.794365 
	C109.635544,64.114334 110.614067,62.992340 111.276108,61.293552 
	C111.686760,60.847073 111.882118,60.698318 112.430298,60.441490 
	C114.976517,60.333630 116.462067,61.463982 117.676849,63.617714 
z"/>
<path fill="#BB6323" opacity="1.000000" stroke="none" 
	d="
M102.264297,98.814430 
	C102.015854,99.121941 101.955505,99.586891 101.876907,99.807755 
	C100.700378,100.828262 99.420959,101.420746 98.611130,103.000977 
	C98.354759,103.716278 98.212898,104.126450 97.920204,104.826416 
	C97.346626,106.108559 96.567841,106.920059 96.179749,108.316231 
	C95.954231,108.842407 95.850220,109.049820 95.552948,109.552994 
	C93.286629,111.988632 91.022156,113.736504 87.478714,113.366501 
	C86.395271,112.377472 86.466881,111.393784 86.637177,110.034004 
	C87.460609,106.215744 90.648994,104.198112 92.022125,100.660706 
	C94.421059,97.201637 97.354904,95.306015 101.645699,95.182983 
	C103.706200,96.124504 103.399918,97.272438 102.264297,98.814430 
z"/>
<path fill="#E9D4D2" opacity="1.000000" stroke="none" 
	d="
M75.213638,22.146057 
	C74.998665,20.844162 74.997490,19.867981 74.994675,18.525743 
	C80.571030,16.512598 86.306313,16.112280 92.523796,15.948605 
	C95.466293,19.634148 91.064903,19.936813 89.680557,22.150490 
	C88.697540,22.825104 87.946747,23.025160 86.771729,23.087166 
	C84.226669,22.550259 82.061844,22.085825 79.489120,22.948809 
	C78.366241,23.207392 77.603188,23.212500 76.464371,22.989788 
	C75.869736,22.744217 75.648582,22.607996 75.213638,22.146057 
z"/>
<path fill="#873B26" opacity="1.000000" stroke="none" 
	d="
M113.301727,60.834923 
	C112.957970,60.980370 112.545174,61.089993 112.338287,61.142921 
	C111.632248,60.895836 111.255394,60.483997 110.863800,59.559288 
	C110.588928,58.048740 110.541100,56.936863 110.717361,55.419609 
	C112.263580,51.146809 110.810646,47.200466 111.150864,42.904480 
	C111.499741,41.410755 112.347343,40.733608 113.439865,39.779526 
	C114.294090,39.402767 114.808662,39.406471 115.615479,39.844738 
	C116.208588,41.220177 116.507957,42.336357 116.809059,43.800770 
	C115.787682,45.515316 116.304314,46.973206 116.718262,48.688637 
	C116.600555,51.655834 116.321671,54.349804 116.023834,57.455196 
	C116.606621,59.967865 115.339951,60.507454 113.301727,60.834923 
z"/>
<path fill="#872F21" opacity="1.000000" stroke="none" 
	d="
M105.482681,19.494644 
	C106.130936,21.298342 106.141861,22.842209 105.122856,24.644577 
	C105.335846,25.407171 105.513748,25.848871 105.495651,26.695683 
	C105.038673,27.693817 104.482140,28.151382 103.572037,28.741127 
	C101.478226,29.645050 100.416573,31.213634 98.795197,32.694126 
	C96.678963,33.577396 94.934578,33.567753 93.010468,32.197960 
	C91.842690,29.602890 93.371124,28.192780 94.721977,26.794985 
	C97.105026,24.329130 99.350685,21.712954 102.492065,19.492554 
	C103.608604,19.057428 104.380646,19.041153 105.482681,19.494644 
z"/>
<path fill="#429059" opacity="1.000000" stroke="none" 
	d="
M59.556011,152.343796 
	C60.305466,152.080505 60.791264,152.029266 61.642960,151.957474 
	C63.360050,150.316605 65.260735,150.361496 67.570000,150.269394 
	C70.990082,150.904770 74.104355,149.998734 77.405144,151.408249 
	C78.632004,152.279999 78.724449,153.130936 78.185204,154.435120 
	C69.382683,154.793198 60.860153,154.793274 52.115410,154.410812 
	C52.661625,153.787857 53.430058,153.547440 54.458061,153.142914 
	C56.192234,152.293671 57.848499,153.573578 59.556011,152.343796 
z"/>
<path fill="#F8C545" opacity="1.000000" stroke="none" 
	d="
M44.510437,72.235077 
	C43.782734,69.914955 43.402660,67.836960 43.098034,65.360977 
	C43.790588,64.324547 44.429398,63.713646 45.548347,63.178169 
	C47.128407,62.523487 48.307823,61.765949 50.058094,61.557194 
	C51.180645,61.792023 51.813480,62.195576 52.513283,63.140320 
	C53.178471,66.271278 52.799232,68.942612 51.477962,71.869606 
	C50.074894,73.220490 48.704212,73.469376 46.813004,73.284866 
	C45.865932,72.995552 45.353771,72.753807 44.510437,72.235077 
z"/>
<path fill="#C99848" opacity="1.000000" stroke="none" 
	d="
M113.621063,74.888664 
	C113.936951,75.623573 113.977119,76.043747 114.046692,76.778702 
	C114.554253,82.333839 111.430382,86.742607 110.372681,91.907455 
	C108.566017,91.901505 107.784607,90.891457 107.092102,89.266136 
	C106.893456,88.353851 106.867294,87.821327 106.946350,86.886917 
	C108.258698,82.716461 107.793633,78.447357 110.611801,74.774445 
	C111.747971,74.184746 112.550797,74.192543 113.621063,74.888664 
z"/>
<path fill="#CFBFC0" opacity="1.000000" stroke="none" 
	d="
M104.862518,27.293129 
	C104.906059,26.522295 104.927971,26.093029 104.986046,25.343132 
	C108.945328,26.721804 111.581573,29.837400 114.043137,33.531746 
	C114.561172,35.227379 113.939484,36.255276 112.772949,37.390121 
	C112.196732,37.592926 111.952347,37.626659 111.344719,37.599190 
	C108.765434,36.338943 107.733940,34.101433 106.142715,31.899282 
	C105.574646,30.278158 104.875618,29.051762 104.862518,27.293129 
z"/>
<path fill="#C1873E" opacity="1.000000" stroke="none" 
	d="
M107.615067,88.826889 
	C108.563438,89.808525 109.166191,90.673103 109.905716,91.823982 
	C107.756813,94.579514 105.811455,97.410141 102.363373,99.067940 
	C102.116638,98.216675 102.217415,97.311401 102.141441,96.206741 
	C100.776505,94.455391 101.741783,93.240059 102.816849,91.715958 
	C104.267761,90.233215 105.441528,88.962547 107.615067,88.826889 
z"/>
<path fill="#4A8E5B" opacity="1.000000" stroke="none" 
	d="
M82.902229,152.399963 
	C89.110489,152.041733 95.186554,152.053467 101.740654,152.130005 
	C102.737686,152.781006 102.806282,153.457153 102.404221,154.471558 
	C99.437126,154.818954 96.682060,154.879791 93.472878,154.890976 
	C90.132538,153.126160 86.891190,154.533020 83.549286,153.613556 
	C83.060478,153.205841 82.915260,152.987885 82.902229,152.399963 
z"/>
<path fill="#419A57" opacity="1.000000" stroke="none" 
	d="
M29.155373,146.635513 
	C29.071741,148.540421 31.033474,149.686646 30.002123,151.830124 
	C26.478703,152.043762 26.183620,148.435471 24.037277,146.459229 
	C23.684956,145.743927 23.541851,145.316406 23.572353,144.495392 
	C24.192225,143.131775 24.602247,142.015472 25.703270,140.934235 
	C27.520418,140.588348 28.101208,141.716690 28.911343,143.078125 
	C29.377943,144.358475 29.560698,145.315842 29.155373,146.635513 
z"/>
<path fill="#E3BA4F" opacity="1.000000" stroke="none" 
	d="
M49.516773,87.209091 
	C47.629257,84.433098 48.076290,81.586975 47.847107,78.407555 
	C48.057949,77.163033 48.523445,76.407700 49.152992,75.359474 
	C49.566196,74.964874 49.758835,74.834595 50.302967,74.666855 
	C50.872616,74.726349 51.090763,74.823303 51.536480,75.201439 
	C52.241421,76.364822 52.423546,77.320686 52.499641,78.684357 
	C52.878021,80.560005 53.392361,82.034142 53.253204,84.013809 
	C52.770817,86.166328 51.904846,87.451157 49.516773,87.209091 
z"/>
<path fill="#4E7A50" opacity="1.000000" stroke="none" 
	d="
M114.472404,153.809540 
	C113.905701,152.043442 112.231003,152.251587 110.344406,150.913651 
	C114.874329,150.913651 118.468010,150.913651 122.521210,150.912369 
	C123.609612,151.214096 123.933769,151.746170 124.091217,152.721207 
	C121.186394,155.081787 117.957191,153.458679 114.472404,153.809540 
z"/>
<path fill="#7BD0B6" opacity="1.000000" stroke="none" 
	d="
M125.754303,122.354507 
	C128.014832,121.943863 129.150986,124.293411 131.628448,123.950851 
	C135.013062,123.962090 133.744720,126.941391 134.881897,128.586365 
	C133.649857,129.752563 132.364349,129.480072 130.706024,129.281097 
	C127.366989,128.028625 125.384621,126.129028 125.754303,122.354507 
z"/>
<path fill="#C1F1DC" opacity="1.000000" stroke="none" 
	d="
M33.198181,126.673523 
	C31.136477,128.778503 29.846397,131.614014 26.207455,130.183441 
	C26.643892,128.268631 26.293377,126.149925 28.539360,124.992439 
	C29.995329,124.975052 31.078991,124.985443 32.569153,124.990753 
	C33.335274,125.378891 33.484570,125.840172 33.198181,126.673523 
z"/>
<path fill="#457D4B" opacity="1.000000" stroke="none" 
	d="
M130.767670,149.292801 
	C132.223831,147.706482 133.348801,146.381241 133.935974,144.338348 
	C134.139267,143.893051 134.310501,143.779892 134.790222,143.671387 
	C136.124908,143.994904 136.792435,144.776260 137.688309,145.750092 
	C137.360413,149.520386 135.381088,151.573624 131.382599,151.880981 
	C130.402878,151.195358 130.280411,150.449112 130.767670,149.292801 
z"/>
<path fill="#CD7B20" opacity="1.000000" stroke="none" 
	d="
M59.228363,98.861191 
	C58.468353,98.411148 58.014931,97.754463 57.276329,96.961426 
	C55.225826,95.222916 53.343784,93.721687 52.102570,91.240250 
	C51.857960,91.025726 51.931854,91.002914 51.925449,91.041046 
	C51.513325,90.328941 51.954464,89.906746 52.829094,89.455452 
	C53.349503,89.396759 53.559151,89.414719 54.050224,89.549408 
	C54.654980,90.042572 54.944557,89.954590 55.527283,89.487030 
	C58.348499,89.417702 59.604378,91.085777 60.722958,93.416771 
	C60.849625,94.014008 60.873962,94.258636 60.874184,94.871994 
	C60.530388,96.424400 60.337040,97.656738 59.228363,98.861191 
z"/>
<path fill="#CB7038" opacity="1.000000" stroke="none" 
	d="
M45.932625,58.442154 
	C45.962910,56.944138 45.989826,55.878448 46.067978,54.091942 
	C46.690479,51.376938 46.858643,49.398048 45.752113,47.152283 
	C45.535694,46.389599 45.538540,45.936623 45.776154,45.185837 
	C45.945610,44.888157 45.974701,44.957722 45.937019,44.958946 
	C46.690365,44.399128 47.551262,44.169098 48.915329,44.630173 
	C51.676926,47.853912 50.111717,51.323200 50.474686,55.010849 
	C50.487629,56.648331 50.566254,57.846321 49.793739,59.341496 
	C47.999775,60.957729 46.914494,60.131493 45.932625,58.442154 
z"/>
<path fill="#57BF98" opacity="1.000000" stroke="none" 
	d="
M130.745087,128.337433 
	C132.063080,128.247238 133.142685,128.448914 134.522491,128.801895 
	C135.986313,130.887543 136.620758,132.997711 136.973358,135.599289 
	C136.704559,136.333725 136.289948,136.546097 135.448868,136.608826 
	C134.628189,136.427246 134.200089,136.208603 133.525970,135.695312 
	C132.307480,134.365662 131.143921,133.462509 130.252548,131.852859 
	C129.847366,130.495453 129.910721,129.525467 130.745087,128.337433 
z"/>
<path fill="#427643" opacity="1.000000" stroke="none" 
	d="
M130.590759,148.969788 
	C131.000580,149.682816 131.002213,150.401520 131.008331,151.478500 
	C129.008118,152.429779 127.063698,153.345917 124.482132,153.012146 
	C123.742928,152.543365 123.401871,152.042404 123.020767,151.226273 
	C124.977341,148.762711 127.614799,148.998703 130.590759,148.969788 
z"/>
<path fill="#C7E8E1" opacity="1.000000" stroke="none" 
	d="
M114.759323,106.618927 
	C114.346893,107.879723 113.881569,108.780647 113.171890,109.869934 
	C112.927544,110.058281 112.565514,109.779617 112.452522,109.586624 
	C111.730690,108.796204 111.737648,109.910133 110.978287,109.845886 
	C108.774277,109.999222 107.333817,109.231621 106.201675,107.253647 
	C105.918579,106.059875 106.030869,105.274803 106.677216,104.230339 
	C106.962608,103.936523 107.003326,103.989487 106.972687,103.976250 
	C107.136383,103.854546 107.330719,103.746071 107.818626,103.796577 
	C110.310265,104.723389 112.508347,105.491226 114.759323,106.618927 
z"/>
<path fill="#FCE266" opacity="1.000000" stroke="none" 
	d="
M45.609699,58.105820 
	C46.296749,59.237984 47.616306,59.148281 48.679558,59.940830 
	C49.667297,60.260586 50.046131,60.735367 50.009697,61.703205 
	C48.920334,62.836174 48.326801,64.189796 46.398682,64.008827 
	C45.216206,63.982258 44.339916,64.027321 43.383373,63.225662 
	C44.115589,61.505657 43.718819,59.419125 45.609699,58.105820 
z"/>
<path fill="#55996A" opacity="1.000000" stroke="none" 
	d="
M137.937378,145.532303 
	C136.717453,145.994202 135.520264,146.061737 134.956055,144.285583 
	C133.719299,142.672668 133.520981,141.165466 133.923218,139.161728 
	C134.165176,138.554077 134.294266,138.324753 134.712585,137.827332 
	C135.747406,137.196152 136.500610,137.169739 137.570084,137.746033 
	C137.912888,140.352753 137.947647,142.721725 137.937378,145.532303 
z"/>
<path fill="#BFE4DD" opacity="1.000000" stroke="none" 
	d="
M106.603127,103.829865 
	C106.959663,104.760674 106.956711,105.584824 106.928558,106.820435 
	C105.125427,108.671211 103.426849,107.686485 101.391273,106.840454 
	C100.687531,106.240959 100.437065,105.791908 100.298157,104.883667 
	C100.407669,103.701233 100.804062,103.067039 101.750702,102.361801 
	C103.648514,102.171722 105.698044,100.950775 106.603127,103.829865 
z"/>
<path fill="#2B6837" opacity="1.000000" stroke="none" 
	d="
M82.963112,151.706573 
	C83.022797,152.198532 83.011177,152.367050 83.005196,152.788895 
	C83.346794,153.391418 83.504936,153.804337 83.257950,154.577148 
	C81.625000,154.880508 80.192253,154.897400 78.332352,154.853699 
	C77.921944,154.108505 77.938683,153.423889 77.946602,152.396591 
	C77.824524,151.865387 77.711258,151.676865 77.792892,151.222153 
	C79.570648,151.693192 81.449089,149.037048 82.963112,151.706573 
z"/>
<path fill="#E3C0BA" opacity="1.000000" stroke="none" 
	d="
M89.068771,21.870575 
	C88.286652,18.213181 93.503510,19.786171 92.964645,16.263683 
	C93.147972,15.132809 93.720421,14.986198 94.691086,15.064365 
	C96.011749,16.039682 96.687691,17.107710 96.660080,18.897873 
	C95.403755,21.780067 92.956436,22.012371 90.283630,22.545559 
	C89.646057,22.445169 89.402008,22.349379 89.068771,21.870575 
z"/>
<path fill="#E5D7D7" opacity="1.000000" stroke="none" 
	d="
M96.283020,19.312748 
	C95.662888,17.966188 95.324707,16.896618 94.991570,15.485866 
	C95.748772,15.110644 96.500938,15.076603 97.625023,15.106030 
	C99.309624,15.951810 101.015755,14.963008 102.395424,16.464695 
	C102.544052,17.072784 102.543884,17.329758 102.399628,17.948055 
	C101.374718,19.393158 100.181213,19.876333 98.448326,20.093559 
	C97.520226,20.035797 97.024590,19.865036 96.283020,19.312748 
z"/>
<path fill="#248D44" opacity="1.000000" stroke="none" 
	d="
M83.505112,154.916504 
	C83.041695,154.458679 83.025635,154.053772 83.010208,153.345535 
	C86.250656,153.491150 89.717430,151.883102 92.889511,154.479584 
	C89.996666,154.884033 86.974564,154.926727 83.505112,154.916504 
z"/>
<path fill="#D79D42" opacity="1.000000" stroke="none" 
	d="
M54.263401,89.682251 
	C53.457119,90.183571 52.886856,90.394875 52.117821,90.842682 
	C49.651810,91.065941 49.644989,89.118828 49.096142,87.340805 
	C50.621967,86.868408 51.603779,86.179565 51.966888,84.375931 
	C52.205605,83.910690 52.409492,83.769562 52.962090,83.763313 
	C54.084713,84.598564 54.454727,85.525986 54.849258,86.854309 
	C55.014236,87.990578 54.898388,88.719666 54.263401,89.682251 
z"/>
<path fill="#E29C46" opacity="1.000000" stroke="none" 
	d="
M113.243233,61.126720 
	C113.880127,60.134117 114.802292,59.287865 115.864670,58.154118 
	C118.438774,58.973740 118.004333,61.153072 117.916794,63.558624 
	C116.405594,63.052147 114.967041,62.162609 113.243233,61.126720 
z"/>
<path fill="#7E9F96" opacity="1.000000" stroke="none" 
	d="
M101.809479,102.046799 
	C101.683723,102.735573 101.300552,103.320930 100.562424,104.004166 
	C99.102356,104.960175 98.196815,104.675522 97.209198,103.371071 
	C97.033173,100.385048 98.748421,99.816132 101.421738,100.015121 
	C102.079887,100.713631 100.746803,101.190994 101.809479,102.046799 
z"/>
<path fill="#DF5A1A" opacity="1.000000" stroke="none" 
	d="
M45.918976,72.544312 
	C47.518143,72.191490 48.805901,72.122345 50.721054,72.227409 
	C51.524960,72.744514 51.603924,73.108566 51.491135,73.761482 
	C51.145962,74.318260 50.843292,74.531471 50.270027,74.843445 
	C50.060398,75.031502 50.015320,75.028778 50.026169,75.048584 
	C49.217533,75.775528 48.473751,76.597191 47.028351,76.898392 
	C46.395149,76.934036 46.171715,76.784508 45.994026,76.297821 
	C45.264164,75.064400 45.523323,73.936966 45.918976,72.544312 
z"/>
<path fill="#96928D" opacity="1.000000" stroke="none" 
	d="
M102.557106,154.815186 
	C102.179375,154.114853 102.166542,153.471573 102.186203,152.511566 
	C103.805626,152.526917 105.763115,150.760941 107.037308,153.423401 
	C105.892044,154.961975 104.473465,155.175598 102.557106,154.815186 
z"/>
<path fill="#B88981" opacity="1.000000" stroke="none" 
	d="
M101.896408,18.385876 
	C102.030273,17.932009 102.052109,17.763796 102.131020,17.347635 
	C102.512474,15.999906 103.267097,15.516183 104.699554,15.765607 
	C106.364159,16.684523 105.826660,17.950903 105.855461,19.376503 
	C105.121414,19.744968 104.434303,19.775494 103.403709,19.799465 
	C102.366341,19.724720 101.987389,19.298218 101.896408,18.385876 
z"/>
<path fill="#C99350" opacity="1.000000" stroke="none" 
	d="
M51.911808,91.393051 
	C54.122238,92.169456 55.723064,93.964249 56.948395,96.497276 
	C53.851955,96.589539 52.480526,94.599922 51.911808,91.393051 
z"/>
<path fill="#E2B291" opacity="1.000000" stroke="none" 
	d="
M49.266594,44.685539 
	C48.208118,44.939236 47.437740,44.909298 46.283348,44.919762 
	C45.935085,43.885017 45.970837,42.809860 46.088825,41.337856 
	C47.134037,39.532768 48.063007,39.702610 49.192596,41.170124 
	C50.070805,42.332760 50.072716,43.355690 49.266594,44.685539 
z"/>
<path fill="#94AF98" opacity="1.000000" stroke="none" 
	d="
M60.813965,105.444656 
	C59.960293,103.984848 60.643368,102.872742 60.930794,101.355202 
	C60.991951,100.996506 60.959785,100.570221 61.280334,100.184601 
	C63.462917,100.257538 64.502151,101.461189 64.769897,103.703293 
	C64.645576,104.303230 64.553604,104.534035 64.217651,105.048874 
	C63.081646,105.959061 62.125439,106.035141 60.813965,105.444656 
z"/>
<path fill="#AD867F" opacity="1.000000" stroke="none" 
	d="
M110.776443,37.248287 
	C111.047493,36.959396 111.532692,36.926926 111.775040,36.946560 
	C112.672211,37.685226 113.669022,36.974865 114.594315,37.745899 
	C115.175896,38.468235 115.526779,38.972229 115.893448,39.790108 
	C115.524376,40.194164 115.139526,40.284328 114.466286,40.445072 
	C113.682755,40.692474 113.173393,40.805080 112.258255,40.804832 
	C111.083160,40.446743 110.561981,39.894192 110.294662,38.690727 
	C110.351173,38.042347 110.428284,37.789761 110.776443,37.248287 
z"/>
<path fill="#C1873E" opacity="1.000000" stroke="none" 
	d="
M59.055397,99.350372 
	C59.107265,97.871704 59.292755,96.675583 59.743385,95.229630 
	C60.970348,95.158844 61.630306,95.776466 62.379704,96.806931 
	C62.797672,98.092529 62.601982,98.946068 61.541420,99.818619 
	C61.242321,99.994591 61.122982,100.104324 61.044548,100.123550 
	C60.373749,99.972824 59.781384,99.802872 59.055397,99.350372 
z"/>
<path fill="#D1926A" opacity="1.000000" stroke="none" 
	d="
M45.584724,45.102280 
	C45.972237,45.372875 45.998863,45.857597 46.050529,46.705322 
	C47.371056,49.027100 47.145721,51.100151 46.271324,53.574226 
	C46.006153,53.946404 45.946968,53.961403 45.935177,53.989624 
	C44.191643,51.237839 45.185577,48.238705 45.584724,45.102280 
z"/>
<path fill="#E79E31" opacity="1.000000" stroke="none" 
	d="
M46.820137,77.185989 
	C47.034481,75.568741 47.974449,75.051819 49.677948,75.088058 
	C49.953392,76.259819 49.965588,77.505173 48.092255,77.940498 
	C47.468220,77.800331 47.201035,77.610001 46.820137,77.185989 
z"/>
<path fill="#C1A4A4" opacity="1.000000" stroke="none" 
	d="
M114.898392,37.596031 
	C114.014015,37.801594 113.203026,37.638947 112.204712,37.221245 
	C112.624809,36.131817 113.232231,35.297436 113.959763,34.170425 
	C115.528969,34.687828 114.869484,36.059231 114.898392,37.596031 
z"/>
<path fill="#D9B8B1" opacity="1.000000" stroke="none" 
	d="
M104.834724,15.596088 
	C104.242767,16.238276 103.477440,16.506561 102.450104,16.937265 
	C101.312965,15.747098 99.681503,16.242790 98.256958,15.383463 
	C100.218414,15.187060 102.439880,15.204623 104.834724,15.596088 
z"/>
<path fill="#66BD89" opacity="1.000000" stroke="none" 
	d="
M24.335875,143.578857 
	C24.081051,144.404205 24.050837,144.893433 24.001202,145.749863 
	C22.111702,144.029007 23.230953,141.620682 23.607273,139.142044 
	C23.981216,139.170166 24.002537,139.385986 24.057495,139.925354 
	C24.892500,141.145737 25.028368,142.146912 24.335875,143.578857 
z"/>
<path fill="#A3786B" opacity="1.000000" stroke="none" 
	d="
M116.966187,48.566162 
	C115.730896,47.579552 114.462082,46.212543 116.557907,44.299210 
	C116.891510,45.489487 116.972221,46.829971 116.966187,48.566162 
z"/>
<path fill="#F9D882" opacity="1.000000" stroke="none" 
	d="
M43.093605,63.319397 
	C43.991821,63.171207 44.823513,63.349491 45.862789,63.779976 
	C45.532196,64.859459 44.685589,64.935883 43.495064,64.960449 
	C43.124683,64.523949 43.075882,64.084908 43.093605,63.319397 
z"/>
<path fill="#E79E31" opacity="1.000000" stroke="none" 
	d="
M45.890858,72.178055 
	C46.144108,73.279770 46.057827,74.298904 45.961739,75.704979 
	C44.370026,75.464691 45.611420,73.388748 44.180664,72.333878 
	C44.625648,72.027122 45.088486,72.061295 45.890858,72.178055 
z"/>
<path fill="#24934E" opacity="1.000000" stroke="none" 
	d="
M137.923889,137.740707 
	C137.166534,138.004868 136.454926,138.025955 135.387268,138.041656 
	C134.653259,137.585434 134.503464,137.068512 134.791443,136.122650 
	C135.456757,135.787247 135.912430,135.814667 136.704315,135.908386 
	C137.040543,135.974716 136.989227,135.941269 137.009705,135.918518 
	C137.173340,136.180786 137.362839,136.430634 137.750366,136.826477 
	C137.902023,137.007614 137.969635,137.497650 137.923889,137.740707 
z"/>
<path fill="#7BD0B6" opacity="1.000000" stroke="none" 
	d="
M131.841644,121.717896 
	C131.319702,121.826111 130.820114,121.619705 130.212494,121.160400 
	C130.690964,121.072754 131.277496,121.238007 131.841644,121.717896 
z"/>
<path fill="#BFE4DD" opacity="1.000000" stroke="none" 
	d="
M108.017715,103.699539 
	C107.917320,103.965820 107.722450,103.976089 107.234802,103.974686 
	C107.122177,103.512329 107.176949,102.824852 108.017715,103.699539 
z"/>
<path fill="#55996A" opacity="1.000000" stroke="none" 
	d="
M137.899643,136.738861 
	C137.577667,136.887711 137.343048,136.670761 137.114166,136.126282 
	C137.319214,136.087219 137.608231,136.278656 137.899643,136.738861 
z"/>
<path fill="#54E6AE" opacity="1.000000" stroke="none" 
	d="
M31.224989,135.334076 
	C32.092587,133.652008 33.156479,134.190033 34.410381,134.947250 
	C40.354771,138.537048 45.242630,137.545700 49.069420,131.767624 
	C51.150173,128.625900 52.700741,125.135818 54.732777,121.957794 
	C55.656612,120.512978 56.200329,118.530548 58.639458,118.044983 
	C63.168877,120.914268 64.626579,125.192848 64.861855,130.386108 
	C62.262733,133.977478 58.034843,133.987045 54.944023,136.108765 
	C52.923294,137.495941 50.721550,138.621201 48.447559,140.322906 
	C47.607590,140.633911 47.108089,140.622498 46.301071,140.244293 
	C40.743301,139.854095 35.653664,139.167862 31.224989,135.334076 
z"/>
<path fill="#1BAC4F" opacity="1.000000" stroke="none" 
	d="
M29.413445,146.972443 
	C28.676699,146.186279 28.368992,145.412125 28.031967,144.324677 
	C29.936440,142.021942 32.271221,142.646225 34.522392,143.091370 
	C41.455132,144.462173 48.322697,146.141266 55.264954,147.481293 
	C56.905235,147.797913 58.512230,147.922211 60.571442,148.061066 
	C65.737640,148.096756 70.479942,148.104767 75.704384,148.198959 
	C76.409019,148.714371 76.631516,149.143631 76.946594,149.801529 
	C74.673172,152.842697 71.441925,150.884964 68.342834,151.763245 
	C66.288307,151.971695 64.576515,151.962311 62.436790,151.944931 
	C53.889404,149.666168 45.395073,149.783539 37.188091,148.043945 
	C34.773197,147.532074 32.292839,147.329025 29.413445,146.972443 
z"/>
<path fill="#42DF9F" opacity="1.000000" stroke="none" 
	d="
M46.077553,140.383667 
	C46.436466,140.014313 46.882729,140.004471 47.663704,139.992584 
	C55.113991,136.365112 62.668114,135.880264 70.828979,136.796829 
	C72.357613,136.649323 73.427582,136.815521 74.698410,137.724243 
	C75.088150,139.794510 74.657845,141.385895 72.816620,142.040894 
	C63.765522,145.260788 54.881889,144.606903 46.077553,140.383667 
z"/>
<path fill="#29C36A" opacity="1.000000" stroke="none" 
	d="
M60.732681,147.807526 
	C54.772507,150.258408 49.036919,146.916107 43.047493,146.417511 
	C38.281567,146.020767 33.581352,144.834747 28.427305,144.005264 
	C27.496376,143.148056 26.990108,142.284714 26.242283,141.246185 
	C25.894777,140.936203 25.788828,140.801376 25.817984,140.447708 
	C27.370161,138.371582 29.198565,138.856445 30.905935,139.523041 
	C40.474983,143.258987 50.547031,145.113159 60.732681,147.807526 
z"/>
<path fill="#42B86E" opacity="1.000000" stroke="none" 
	d="
M78.274429,140.216965 
	C77.993225,138.617157 77.987366,137.254013 77.987495,135.481964 
	C77.344574,133.782623 76.247635,133.201553 74.512093,133.090378 
	C71.709167,132.474289 70.108284,130.769318 68.576057,128.459167 
	C68.323036,127.654373 68.309464,127.176613 68.519943,126.361633 
	C69.342148,125.009712 70.366859,124.410637 71.726662,123.706017 
	C75.726875,123.615433 77.039558,127.928848 80.839340,128.258194 
	C81.706337,128.194260 82.247223,128.050751 82.927704,127.498718 
	C83.441376,127.039848 83.764885,126.811913 84.393974,126.502777 
	C85.520363,126.237671 86.303009,126.439362 87.325348,126.933556 
	C87.740082,127.215240 87.891968,127.346100 88.205353,127.726486 
	C88.405052,128.167908 88.443268,128.359802 88.440430,128.837952 
	C88.322632,129.297150 88.245888,129.470093 87.843323,130.086960 
	C87.396858,130.662277 87.276192,130.793686 86.789009,131.296722 
	C86.301941,131.788742 86.181381,131.909119 85.705719,132.385498 
	C85.350601,132.741501 85.003174,133.093063 84.661797,133.437744 
	C84.320419,133.782425 83.985924,134.118408 83.681671,134.459747 
	C83.377411,134.801102 83.201714,135.218552 83.201714,135.218552 
	C83.201714,135.218552 83.552963,135.520615 83.663971,135.769470 
	C83.894402,136.616577 83.809464,137.197006 83.478127,138.068375 
	C83.201447,138.553818 83.069092,138.739456 82.690804,139.171875 
	C81.339172,140.488754 80.125854,141.153824 78.274429,140.216965 
z"/>
<path fill="#51E0A2" opacity="1.000000" stroke="none" 
	d="
M68.787430,127.723907 
	C70.726517,129.297302 72.406219,130.623718 74.404381,132.000458 
	C75.292343,132.281189 75.531059,132.699921 75.224380,133.649658 
	C75.122574,135.177734 75.234634,136.363541 75.174332,137.778198 
	C73.934502,138.004486 72.867043,138.001907 71.399338,137.999054 
	C68.362473,136.268463 66.238159,133.984879 64.078964,131.329346 
	C64.381157,126.151001 60.343044,122.888535 59.245506,118.237160 
	C59.154118,117.450249 59.323059,116.902229 59.716427,116.167877 
	C64.096909,118.002129 64.743675,122.738777 67.526726,125.829437 
	C67.932266,126.279808 68.105583,126.976768 68.787430,127.723907 
z"/>
<path fill="#37A95D" opacity="1.000000" stroke="none" 
	d="
M77.987930,140.397522 
	C79.457581,140.133438 80.643074,139.687134 81.715813,138.206299 
	C83.906708,140.229584 83.604568,142.370361 81.377975,144.725189 
	C80.278328,146.101120 79.403107,145.701950 78.251068,145.097992 
	C77.979935,143.588089 77.978363,142.201416 77.987930,140.397522 
z"/>
<path fill="#029717" opacity="1.000000" stroke="none" 
	d="
M25.644318,140.167755 
	C25.953087,140.228851 25.923536,140.652145 25.962132,140.861572 
	C25.896484,142.136398 26.242176,143.398346 24.444647,143.892273 
	C24.083872,142.935547 24.056477,141.956100 24.060108,140.612793 
	C24.505938,140.201492 24.920742,140.154083 25.644318,140.167755 
z"/>
<path fill="#2FB366" opacity="1.000000" stroke="none" 
	d="
M75.328873,134.026688 
	C74.956436,133.559189 74.902367,133.126480 74.785568,132.372284 
	C76.028465,132.499741 77.400146,132.859406 77.945679,134.736618 
	C77.211403,134.735855 76.429329,134.398666 75.328873,134.026688 
z"/>
<path fill="#5A9862" opacity="1.000000" stroke="none" 
	d="
M60.429321,105.237061 
	C61.421150,105.131042 62.331676,105.038948 63.868217,105.136963 
	C64.758400,105.695641 64.970284,106.091599 65.202888,106.842354 
	C65.375412,108.904266 65.650612,110.582359 67.069992,112.215103 
	C67.733429,113.293159 67.944359,114.151810 67.665756,115.406281 
	C66.727440,116.860970 65.390839,117.306732 64.001465,118.234283 
	C61.502331,118.033058 61.481125,116.161903 60.921585,114.289696 
	C60.840633,113.528809 60.816204,113.119446 60.756622,112.404373 
	C60.559620,111.554230 60.517338,110.983704 60.185287,110.214775 
	C60.011185,109.991150 59.965218,109.989365 59.956886,110.010803 
	C59.594925,109.581062 59.443275,109.069954 59.646553,108.116226 
	C59.799530,107.733528 59.750317,107.403351 59.732353,107.237411 
	C59.567211,106.612488 59.530048,106.143539 59.885796,105.470291 
	C60.184731,105.274536 60.348019,105.250992 60.429321,105.237061 
z"/>
<path fill="#4FD692" opacity="1.000000" stroke="none" 
	d="
M60.651054,114.135345 
	C61.711681,115.203636 62.558304,116.469093 63.682983,117.923248 
	C64.130478,118.179031 64.299904,118.246117 64.678055,118.490471 
	C65.007729,118.804543 65.128670,118.941330 65.414383,119.297394 
	C65.683205,119.667610 65.787254,119.818542 66.042671,120.199471 
	C66.473946,120.908951 66.792564,121.362289 67.299026,122.033768 
	C67.585159,122.419037 67.696854,122.577110 67.965858,122.982742 
	C68.415932,123.749458 68.662766,124.289749 68.916367,125.446625 
	C68.980629,126.472374 68.996109,126.900871 69.029198,127.650116 
	C64.299911,125.532593 62.469906,120.925079 60.206863,116.211662 
	C60.106251,115.431870 60.271648,114.882187 60.651054,114.135345 
z"/>
<path fill="#51E0A2" opacity="1.000000" stroke="none" 
	d="
M59.511230,107.787056 
	C59.871944,108.243057 59.944363,108.752586 59.982666,109.647171 
	C59.537624,110.017403 59.126694,110.002563 58.408913,109.988571 
	C58.103226,109.572739 58.104382,109.156052 58.094906,108.428787 
	C58.463825,108.025665 58.843380,107.933121 59.511230,107.787056 
z"/>
<path fill="#4FD692" opacity="1.000000" stroke="none" 
	d="
M60.000854,110.281769 
	C60.282490,110.495262 60.553799,110.999382 60.773285,111.801086 
	C60.477821,111.589920 60.234173,111.081154 60.000854,110.281769 
z"/>
<path fill="#9DF3D4" opacity="1.000000" stroke="none" 
	d="
M33.349876,126.994400 
	C32.977291,126.535095 32.981766,126.092674 32.980949,125.317963 
	C33.466846,124.398476 33.958042,123.811272 34.706551,123.089188 
	C38.926186,122.130951 40.465279,117.655373 44.686138,116.867989 
	C45.006233,120.690186 42.773899,123.604195 41.370514,126.726601 
	C39.350189,131.221619 36.315350,127.043427 33.349876,126.994400 
z"/>
<path fill="#B1F6DC" opacity="1.000000" stroke="none" 
	d="
M45.169807,116.721306 
	C41.501568,118.332863 40.955036,124.249992 35.366928,122.969429 
	C38.255440,118.381081 42.275482,114.638390 47.700737,112.072067 
	C48.031960,114.064026 46.260902,114.987061 45.169807,116.721306 
z"/>
<path fill="#B1F6DC" opacity="1.000000" stroke="none" 
	d="
M52.618050,109.967087 
	C52.402077,110.992363 51.924755,112.151047 50.180553,111.282654 
	C50.506519,110.185928 51.359959,110.008522 52.618050,109.967087 
z"/>
<path fill="#8AEDC8" opacity="1.000000" stroke="none" 
	d="
M59.934486,105.316292 
	C60.125557,105.686562 60.066383,106.098579 59.860798,106.791031 
	C59.207085,106.509079 58.991589,105.941551 59.934486,105.316292 
z"/>
<path fill="#2DC982" opacity="1.000000" stroke="none" 
	d="
M83.416405,148.189346 
	C83.018257,147.517273 82.982452,147.095718 82.926514,146.357483 
	C82.388306,145.113754 82.048210,144.154037 82.459869,142.707733 
	C85.418816,139.772980 87.892616,144.358658 91.072556,142.689529 
	C101.636703,141.444046 111.301468,138.013962 121.642853,135.741302 
	C124.275909,136.225906 126.626305,136.127335 128.940247,137.707520 
	C128.757202,143.319977 123.715767,143.950363 120.515961,144.931259 
	C108.605927,148.582169 96.333931,150.559998 83.416405,148.189346 
z"/>
<path fill="#24AC5F" opacity="1.000000" stroke="none" 
	d="
M83.222763,148.283569 
	C94.176582,148.412766 105.213440,148.097382 116.043404,145.036652 
	C120.713158,143.716873 124.847710,141.511063 128.843353,138.323624 
	C129.459305,135.668213 130.842072,134.420105 133.627045,134.569992 
	C134.265335,134.893295 134.518311,135.102142 134.870148,135.554840 
	C135.002121,136.266418 135.003159,136.772995 135.017700,137.657913 
	C135.031189,138.036240 135.016571,138.006638 135.025757,138.012802 
	C132.067490,142.638245 127.301727,144.599106 122.232117,146.731995 
	C112.629929,147.506577 103.618317,150.643936 94.184288,150.446762 
	C90.491913,150.369583 86.733635,150.754349 83.222763,148.283569 
z"/>
<path fill="#24934E" opacity="1.000000" stroke="none" 
	d="
M122.353302,146.924896 
	C126.090424,144.004166 130.212662,141.045303 134.684937,138.052704 
	C135.003067,139.714340 134.971176,141.409698 134.908813,143.526062 
	C134.878357,143.947037 134.423904,143.981766 134.195969,143.993988 
	C130.224838,144.966400 126.481628,145.926590 122.353302,146.924896 
z"/>
<path fill="#2B8342" opacity="1.000000" stroke="none" 
	d="
M68.453285,151.985168 
	C70.469803,149.927521 73.743111,151.928940 76.671577,150.182800 
	C77.326393,150.145370 77.566582,150.323837 77.873764,150.760788 
	C77.983391,151.138962 77.978996,151.321945 77.956192,151.779404 
	C74.927345,152.032349 71.916901,152.010803 68.453285,151.985168 
z"/>
<path fill="#2BA65F" opacity="1.000000" stroke="none" 
	d="
M83.279106,141.681000 
	C83.027542,143.065933 83.002739,144.148026 82.942169,145.635452 
	C82.441818,145.767166 81.977242,145.493546 81.266388,145.109482 
	C81.344322,142.934830 81.668541,140.870621 81.987381,138.405090 
	C81.981995,138.003784 82.448021,138.002945 82.972382,138.251038 
	C84.043152,139.457077 84.053352,140.416733 83.279106,141.681000 
z"/>
<path fill="#B93612" opacity="1.000000" stroke="none" 
	d="
M62.841156,31.218067 
	C63.085339,30.998579 63.323898,30.762888 63.486320,30.804529 
	C68.087265,31.247885 72.514725,32.185184 77.363800,30.977640 
	C79.879158,30.319286 82.039619,29.958982 84.646332,29.782337 
	C85.621620,29.883600 86.145729,30.062641 86.945580,30.613518 
	C88.100105,33.864998 85.816208,34.692211 83.870300,35.473862 
	C79.827934,37.097645 75.594719,37.928635 71.210144,37.573158 
	C67.659058,37.285252 64.285141,37.756428 60.901535,39.830635 
	C60.041565,41.200012 59.224907,42.132420 58.224892,43.377640 
	C56.309574,45.071033 56.155182,47.536922 54.067078,49.067329 
	C53.484856,49.222862 53.234901,49.214233 52.702385,48.953571 
	C50.161194,43.077454 52.726273,38.851402 56.605949,34.641220 
	C56.965950,34.155830 57.125839,33.977570 57.572304,33.593224 
	C59.451889,32.770439 61.517887,33.303253 62.841156,31.218067 
z"/>
<path fill="#CC521A" opacity="1.000000" stroke="none" 
	d="
M57.486336,33.661423 
	C58.129509,36.419491 55.613094,37.293022 54.624485,39.088535 
	C53.067333,41.916611 52.846455,45.009151 52.978256,48.589119 
	C53.740665,52.308979 53.472851,55.139908 49.353340,56.208160 
	C49.008846,52.620049 49.021400,49.254665 49.006226,45.429230 
	C49.117149,44.001392 49.255798,43.033607 49.405991,41.702408 
	C50.167332,40.076920 50.917133,38.814846 51.829010,37.283985 
	C53.592026,35.660210 54.680218,33.550751 57.486336,33.661423 
z"/>
<path fill="#CC521A" opacity="1.000000" stroke="none" 
	d="
M78.013924,31.576628 
	C73.366814,33.326801 68.752388,34.238548 63.983879,31.098270 
	C63.662148,30.671297 63.675545,30.496424 63.783878,30.076199 
	C64.565964,29.378096 65.304703,29.039539 66.506882,28.769100 
	C68.320686,28.581835 69.581367,29.257732 71.345459,29.471031 
	C73.936951,29.714539 76.373726,28.946613 78.013924,31.576628 
z"/>
<path fill="#E4A98E" opacity="1.000000" stroke="none" 
	d="
M74.624039,21.924482 
	C75.205811,21.904902 75.411774,21.989462 75.920380,22.215267 
	C76.951096,24.297194 75.674362,25.177763 73.939606,26.143127 
	C71.866966,26.540754 70.237694,27.422424 67.627365,26.326763 
	C68.374626,22.528236 71.871979,23.430557 74.624039,21.924482 
z"/>
<path fill="#EBAE80" opacity="1.000000" stroke="none" 
	d="
M57.828331,33.835629 
	C55.658028,34.129436 54.571762,36.207119 52.325752,36.961361 
	C52.640812,33.603596 55.351189,32.671684 58.540154,31.893547 
	C59.567554,32.650875 59.069126,33.120659 58.203850,33.725838 
	C57.890621,33.873714 57.850224,33.846474 57.828331,33.835629 
z"/>
<path fill="#CC521A" opacity="1.000000" stroke="none" 
	d="
M58.301105,33.921036 
	C58.175999,33.398685 58.461380,32.923656 58.826027,32.179718 
	C60.056805,31.557796 61.208313,31.204779 62.722580,30.925171 
	C63.182491,34.278732 60.894665,34.046406 58.301105,33.921036 
z"/>
<path fill="#EBAE80" opacity="1.000000" stroke="none" 
	d="
M67.260406,29.734581 
	C66.172081,29.949167 65.400909,29.986982 64.254272,29.927822 
	C64.087944,29.319551 64.297081,28.808256 64.746666,28.141966 
	C65.544525,27.472845 66.175514,27.116648 67.319962,27.087139 
	C67.925842,27.163761 68.163269,27.224937 68.698257,27.500755 
	C69.522995,29.099262 68.616577,29.379574 67.260406,29.734581 
z"/>
<path fill="#E4A98E" opacity="1.000000" stroke="none" 
	d="
M68.078735,27.826618 
	C67.124977,27.997026 66.412491,27.996759 65.343567,27.991732 
	C65.325729,27.378115 65.664345,26.769258 66.361084,25.940304 
	C66.719208,25.720201 67.044380,26.003054 67.209335,26.141712 
	C67.894051,26.598278 68.317947,26.982101 68.078735,27.826618 
z"/>
<path fill="#E19067" opacity="1.000000" stroke="none" 
	d="
M66.739609,25.690107 
	C66.719208,25.720201 66.655235,25.760469 66.645691,25.791645 
	C66.636154,25.822821 66.683952,25.551910 66.756668,25.595037 
	C66.829376,25.638165 66.760017,25.660013 66.739609,25.690107 
z"/>
<path fill="#808D7F" opacity="1.000000" stroke="none" 
	d="
M59.435532,152.112274 
	C59.004166,155.032135 57.144630,153.915405 55.063629,153.128326 
	C55.890533,151.354492 57.560333,152.160812 59.435532,152.112274 
z"/>
<path fill="#4BCEA6" opacity="1.000000" stroke="none" 
	d="
M130.643921,127.983803 
	C130.988525,129.099686 130.993576,130.153809 130.998047,131.604218 
	C131.242996,133.554611 130.112747,133.616348 128.692932,133.713654 
	C122.911255,127.711510 117.015038,122.158401 113.646057,114.417191 
	C115.584694,112.641487 116.780663,114.052109 117.973907,115.024628 
	C119.361595,116.155632 120.807953,117.118362 122.898865,117.697342 
	C123.921677,118.141449 124.473259,118.614326 125.015244,119.586090 
	C125.262650,120.508408 125.389084,121.082718 125.752472,121.844986 
	C126.770691,124.477402 127.787453,126.749298 130.643921,127.983803 
z"/>
<path fill="#71D0BA" opacity="1.000000" stroke="none" 
	d="
M123.441605,118.433762 
	C119.561737,118.768471 117.799240,115.208969 114.033707,114.039352 
	C112.118317,113.719284 110.916313,113.279793 109.381577,112.795326 
	C106.439583,110.885429 103.066345,110.311867 100.802704,107.375229 
	C100.685921,106.814224 100.704201,106.579300 100.997574,106.122452 
	C102.913002,106.292831 104.553322,106.685135 106.548500,107.154671 
	C108.169655,108.385635 109.726547,108.852135 111.727554,109.128387 
	C112.250526,108.914070 112.413551,108.690987 112.664268,108.872971 
	C112.751961,109.278038 112.798218,109.677147 112.862885,109.867714 
	C115.569069,112.611603 118.707794,114.425865 122.273224,116.158211 
	C123.568138,116.495903 123.680237,117.238281 123.441605,118.433762 
z"/>
<path fill="#D0E4DE" opacity="1.000000" stroke="none" 
	d="
M123.494492,118.947205 
	C123.113777,118.143829 122.958939,117.495522 122.709946,116.524277 
	C125.543434,116.171585 126.068695,116.801102 125.396347,119.889816 
	C124.664268,119.656815 124.192329,119.379539 123.494492,118.947205 
z"/>
<path fill="#D5972D" opacity="1.000000" stroke="none" 
	d="
M111.245651,74.590691 
	C110.178833,78.782959 109.353813,82.623817 108.265167,86.732033 
	C106.991615,87.855072 105.860085,88.150909 104.172729,87.521484 
	C102.881042,86.354881 102.583908,85.203575 102.593231,83.502785 
	C102.532120,81.719772 102.867928,80.440186 103.302040,79.198502 
	C105.231178,73.680656 106.176094,68.175339 104.726524,62.282753 
	C103.993706,59.303818 104.534790,56.054947 104.515427,52.504150 
	C104.534569,51.797771 104.545395,51.515274 104.589493,50.809929 
	C104.673416,50.108788 104.724091,49.830490 104.934471,49.160553 
	C105.268150,48.549007 105.442116,48.329098 105.997391,47.935581 
	C110.395248,50.107330 109.051208,54.576458 110.450455,58.377392 
	C110.531708,60.651302 111.494858,62.513664 110.264290,64.715866 
	C110.169426,66.844994 110.312111,68.642593 110.711945,70.719589 
	C111.674240,71.993935 111.736450,73.091713 111.245651,74.590691 
z"/>
<path fill="#6E3615" opacity="1.000000" stroke="none" 
	d="
M110.389206,65.019394 
	C109.701561,63.281628 109.376389,61.515850 109.078033,59.366142 
	C109.732422,57.817825 110.479866,57.243828 111.790634,58.739456 
	C112.002739,59.489960 112.018387,59.977810 112.082718,60.830750 
	C111.915787,62.549831 112.538795,64.208664 110.389206,65.019394 
z"/>
<path fill="#C65818" opacity="1.000000" stroke="none" 
	d="
M111.365799,74.977539 
	C110.994652,73.891197 110.985451,72.840302 110.972672,71.394196 
	C112.006775,71.714935 112.639374,72.909500 114.166924,73.054802 
	C115.999756,73.229126 115.184494,74.126648 114.154999,75.029106 
	C113.173767,75.139923 112.450760,75.076454 111.365799,74.977539 
z"/>
<path fill="#CF7F1B" opacity="1.000000" stroke="none" 
	d="
M62.262482,97.237015 
	C61.152630,96.867416 60.361744,96.621040 60.064644,95.295464 
	C60.013409,94.797127 60.018280,94.614449 60.033932,94.157883 
	C60.730064,93.003387 61.694298,92.924179 63.049301,93.024658 
	C64.547211,93.345924 65.257339,94.417068 66.707603,94.801178 
	C67.647087,95.118347 68.239433,95.427933 69.239136,95.563065 
	C70.278481,95.655197 70.955292,95.825745 71.962189,96.169647 
	C72.741203,96.523460 73.160126,96.780525 73.852188,97.302055 
	C81.925232,100.046280 89.029045,98.404633 95.815132,94.201874 
	C98.115196,92.777412 100.213615,90.440025 103.727730,91.734116 
	C103.359123,93.113449 102.705406,94.234741 102.008186,95.681686 
	C98.684830,96.634483 95.749123,97.900810 93.295181,100.750305 
	C91.058708,102.728485 88.893600,104.196602 85.989670,105.204514 
	C81.807693,105.858513 78.044403,105.973640 73.999146,104.487808 
	C71.824059,104.199524 70.325630,103.182594 68.309097,102.522858 
	C67.480270,102.343124 67.019920,102.205711 66.264412,101.849800 
	C64.446999,100.573547 63.550606,98.962219 62.262482,97.237015 
z"/>
<path fill="#B3ADB8" opacity="1.000000" stroke="none" 
	d="
M66.887123,116.342377 
	C66.839561,115.123436 66.799026,114.310829 66.585541,113.241913 
	C65.822250,112.778961 65.533241,112.364075 65.627258,111.330017 
	C66.258057,110.273972 66.983757,109.937279 68.186005,109.723045 
	C72.042679,109.629745 74.356392,112.635391 77.622986,113.112305 
	C79.395355,113.371063 81.174438,113.613403 83.304245,113.184158 
	C84.317894,112.881050 85.010635,112.810730 86.389290,112.967422 
	C89.815666,112.706131 91.967842,111.107491 94.388397,109.366386 
	C97.980453,112.871178 94.885887,115.404793 92.634048,118.409836 
	C86.085999,120.705894 80.007935,118.862778 73.914978,117.968613 
	C72.309586,117.733017 70.724388,117.390961 68.691574,117.411263 
	C67.717781,117.432449 67.252937,117.193817 66.887123,116.342377 
z"/>
<path fill="#316943" opacity="1.000000" stroke="none" 
	d="
M91.692924,118.426346 
	C93.551170,115.633682 94.978600,113.053436 94.728630,109.520370 
	C94.731712,109.003105 94.840874,108.851250 95.086258,108.454147 
	C95.976517,107.408630 96.173927,106.334160 96.715134,105.077896 
	C96.846825,104.407433 96.879318,104.039261 96.951843,103.398422 
	C97.878601,103.434021 98.765320,103.742271 99.929764,104.076279 
	C100.441185,104.503616 100.674889,104.905197 101.090637,105.603653 
	C101.237617,106.080414 101.202553,106.260292 101.186279,106.714417 
	C104.390388,112.645042 101.188690,116.605988 97.333244,120.725632 
	C96.816628,121.101280 96.592934,121.222435 95.999725,121.417709 
	C94.342613,121.403389 93.420166,120.573402 92.164627,119.660042 
	C91.813805,119.197578 91.714500,118.984169 91.692924,118.426346 
z"/>
<path fill="#C15115" opacity="1.000000" stroke="none" 
	d="
M85.866493,104.148285 
	C88.029900,102.632515 89.830940,101.086212 92.675598,100.974525 
	C92.900932,104.638298 89.294304,106.251877 88.042572,109.636215 
	C86.704933,111.284912 85.091202,111.591110 82.930420,111.472382 
	C81.703590,111.438469 80.886024,111.480560 79.686966,111.267319 
	C77.344475,110.530800 75.426407,109.773888 73.110977,108.983429 
	C70.351357,106.914345 67.793671,105.113876 67.770966,101.321381 
	C69.451614,101.553642 70.912415,102.101013 72.670593,102.805389 
	C76.859314,106.366379 80.983315,107.705574 85.866493,104.148285 
z"/>
<path fill="#CD651B" opacity="1.000000" stroke="none" 
	d="
M81.734612,110.411591 
	C83.687408,110.024162 85.411392,110.006531 87.566040,109.984467 
	C87.753998,110.810928 87.511292,111.641823 87.166351,112.785011 
	C87.064110,113.097298 87.040245,113.069115 87.051651,113.063805 
	C86.566795,113.381126 86.023079,113.525772 85.000305,113.514290 
	C82.426231,113.864372 81.115028,113.269279 81.734612,110.411591 
z"/>
<path fill="#5B3721" opacity="1.000000" stroke="none" 
	d="
M96.563416,104.990952 
	C96.637161,106.003426 98.035805,107.696022 95.497406,108.258698 
	C94.951385,106.977722 95.651619,106.099152 96.563416,104.990952 
z"/>
<path fill="#BF4C2A" opacity="1.000000" stroke="none" 
	d="
M87.476746,31.348152 
	C86.665298,31.072802 86.176491,31.033686 85.320595,30.971191 
	C83.284981,28.522461 85.348251,26.272287 85.322334,23.587826 
	C85.436440,23.041121 85.511528,22.828794 85.823837,22.375954 
	C86.804039,22.020824 87.547035,21.906206 88.634804,21.639576 
	C89.131577,21.573771 89.283562,21.659979 89.697128,21.762413 
	C91.435547,22.205378 93.010429,21.667231 94.793716,22.455788 
	C96.821106,27.095936 92.157516,28.216423 90.456284,31.273434 
	C89.365120,31.830130 88.587341,31.861265 87.476746,31.348152 
z"/>
<path fill="#DE7E4A" opacity="1.000000" stroke="none" 
	d="
M67.280518,30.002640 
	C67.488136,29.422390 68.033020,28.933432 68.749214,28.225758 
	C69.755310,26.625614 71.507973,26.554037 72.783653,25.246504 
	C74.386520,24.860950 75.481964,24.297983 76.132904,22.655840 
	C76.901466,22.310503 77.579910,22.264494 78.600136,22.238003 
	C79.132950,22.423191 79.323990,22.588863 79.679115,23.097172 
	C79.947891,29.161833 75.104645,29.069466 71.259018,30.727882 
	C69.849358,30.672003 68.733566,30.382967 67.280518,30.002640 
z"/>
<path fill="#E4A98E" opacity="1.000000" stroke="none" 
	d="
M79.452209,23.830265 
	C78.988716,23.398052 78.967445,23.169895 78.944046,22.599628 
	C80.958038,20.263824 83.273865,20.906101 85.822754,21.818859 
	C86.115219,22.294992 86.169388,22.454546 86.240356,22.866283 
	C84.351776,24.921051 82.189323,24.937696 79.452209,23.830265 
z"/>
<path fill="#8A3619" opacity="1.000000" stroke="none" 
	d="
M110.287910,38.290401 
	C110.895660,38.882904 111.185257,39.341900 111.674988,39.985401 
	C112.323837,40.495087 112.509438,40.932037 112.202103,41.784546 
	C113.254066,46.139118 113.402443,50.243229 112.281876,54.699226 
	C110.019081,56.119625 109.401749,54.858219 109.063156,53.249310 
	C108.560318,50.859879 107.880814,48.543446 106.423546,46.097843 
	C106.113380,45.263203 106.032768,44.765949 106.036865,43.888962 
	C106.183502,42.556507 106.573067,41.673603 107.066727,40.459419 
	C107.359360,39.953709 107.494080,39.762516 107.874512,39.322212 
	C108.665016,38.622925 109.269592,38.293427 110.287910,38.290401 
z"/>
<path fill="#7D3513" opacity="1.000000" stroke="none" 
	d="
M106.815414,44.687531 
	C109.359451,47.888405 108.857262,51.999798 111.659225,54.920910 
	C112.007690,56.070168 112.002953,57.136253 111.992661,58.602226 
	C111.205322,58.683418 110.437798,58.211597 109.339264,58.879848 
	C108.285057,55.419758 107.465279,51.857304 106.408882,47.994175 
	C104.463760,47.492626 104.142540,46.357079 104.455719,44.552303 
	C105.338699,43.550915 105.981270,43.714703 106.815414,44.687531 
z"/>
<path fill="#98564A" opacity="1.000000" stroke="none" 
	d="
M112.262970,42.032341 
	C111.946922,41.660748 111.921608,41.233147 111.885704,40.487728 
	C112.396858,40.188740 112.918602,40.207569 113.809113,40.371025 
	C113.881905,41.275436 113.387970,41.815105 112.262970,42.032341 
z"/>
<path fill="#79200D" opacity="1.000000" stroke="none" 
	d="
M107.042473,44.656715 
	C106.590958,44.733582 106.126495,44.479153 105.429916,44.095612 
	C99.765694,40.809483 94.178558,38.868763 87.634079,41.921944 
	C85.631058,42.624222 83.951218,43.091602 81.807144,43.079567 
	C80.463287,42.938946 79.512222,42.694981 78.181091,42.513626 
	C77.579590,42.432140 77.338593,42.402317 76.739182,42.310081 
	C73.554161,41.733543 70.821884,40.767994 67.592690,40.502525 
	C66.537727,40.599052 65.834450,40.571659 64.785263,40.572525 
	C63.523193,40.476967 62.612736,40.462479 61.374557,40.787205 
	C60.558525,40.836914 60.101170,40.758461 59.382515,40.389652 
	C60.870541,35.458912 65.275681,36.411274 68.711700,36.167244 
	C73.480019,35.828594 78.246269,35.927380 82.815872,34.230766 
	C84.345306,33.662907 86.060760,33.451111 87.042191,31.450222 
	C87.868805,31.073387 88.583496,31.034859 89.656067,30.958065 
	C90.728653,30.398579 91.505592,30.248745 92.677460,30.788118 
	C94.492294,32.562546 96.414612,31.819193 98.551842,32.028484 
	C100.461594,31.103361 101.622192,32.006584 103.068558,32.993080 
	C104.338303,34.355183 105.011307,35.792721 106.607719,36.844128 
	C107.006638,37.212852 107.151337,37.375893 107.454193,37.824699 
	C107.737450,38.525280 107.789864,38.948204 107.653564,39.678741 
	C107.420784,40.789635 107.058495,41.552467 107.023323,42.693230 
	C107.023674,43.441177 107.026596,43.883305 107.042473,44.656715 
z"/>
<path fill="#98564A" opacity="1.000000" stroke="none" 
	d="
M103.205521,34.248199 
	C101.830109,33.445049 100.689751,32.853466 99.249252,32.143532 
	C98.921432,29.992901 99.377472,28.295677 102.119476,27.953991 
	C104.546021,27.780926 105.371658,29.466825 106.625092,31.035215 
	C108.068497,33.055225 109.397293,34.727261 110.886795,36.679344 
	C110.979240,37.203560 110.910988,37.447723 110.724396,38.057899 
	C110.219955,38.858295 109.833855,39.292683 109.250359,39.841949 
	C108.471405,39.473892 107.943573,38.934273 107.215820,38.194778 
	C107.020981,37.989536 107.001831,37.998074 107.006760,37.988796 
	C105.871246,36.755608 104.962288,35.296841 103.205521,34.248199 
z"/>
<path fill="#AB4532" opacity="1.000000" stroke="none" 
	d="
M93.147415,30.745823 
	C92.252945,31.029114 91.505325,31.009604 90.385834,30.954945 
	C90.298134,27.589006 94.169968,26.690018 94.968109,23.333870 
	C95.177399,21.324705 96.746262,20.695614 97.825157,19.329788 
	C99.156021,18.769657 100.236641,18.399837 101.662842,18.065117 
	C102.271996,18.521090 102.535561,18.941963 102.929672,19.577873 
	C100.538185,24.015356 96.202385,26.574612 93.147415,30.745823 
z"/>
<path fill="#C1A4A4" opacity="1.000000" stroke="none" 
	d="
M106.776993,31.014996 
	C105.084938,30.926067 104.051743,29.648235 102.693916,28.229015 
	C102.760406,27.169966 103.416420,26.981878 104.526031,26.953352 
	C106.194733,27.834806 106.622444,29.179203 106.776993,31.014996 
z"/>
<path fill="#FEDD48" opacity="1.000000" stroke="none" 
	d="
M50.883369,72.091728 
	C51.098549,69.255615 50.812485,66.352119 51.841614,63.184090 
	C50.683914,61.163715 50.584934,59.540237 52.054722,57.600834 
	C59.406372,54.261063 66.559624,51.636303 74.715118,51.482338 
	C77.040642,53.985973 76.045502,56.414497 75.211243,58.742435 
	C73.245201,64.228539 71.135384,69.660027 67.067856,74.538155 
	C61.392605,76.037918 56.062328,77.309250 51.231926,72.371819 
	C50.911026,72.054718 50.899979,72.084160 50.883369,72.091728 
z"/>
<path fill="#B2581B" opacity="1.000000" stroke="none" 
	d="
M53.008522,57.702293 
	C52.395454,59.271942 52.122349,60.663418 51.842041,62.410873 
	C51.304672,62.635017 50.774506,62.503178 50.039272,62.174919 
	C49.611614,61.511448 49.389023,61.044392 49.064529,60.329521 
	C48.972027,58.989445 48.981422,57.897182 48.993557,56.395172 
	C52.211830,55.043842 51.311245,51.693336 52.831852,49.349342 
	C53.150761,49.012703 53.326595,49.002804 54.049141,49.246189 
	C55.156258,50.438915 55.216049,51.470634 55.109589,52.911083 
	C54.734158,54.804085 54.511181,56.354984 53.008522,57.702293 
z"/>
<path fill="#DA8E1B" opacity="1.000000" stroke="none" 
	d="
M104.291405,91.850174 
	C101.231018,91.740723 99.488808,93.763847 97.450470,95.066559 
	C89.904076,99.889519 81.946297,101.824570 73.089539,98.415764 
	C73.053413,97.539543 73.273926,97.115791 73.929420,96.563965 
	C75.459862,95.981194 76.656830,96.219818 78.216095,96.497253 
	C86.286568,96.808319 92.301926,92.649689 98.464569,88.912422 
	C100.006424,87.977379 101.395645,86.771858 103.656860,86.849442 
	C105.063026,86.999298 106.131546,86.999939 107.600800,86.999985 
	C107.992416,87.431953 107.983299,87.864517 107.967430,88.620514 
	C106.830444,89.865364 105.700203,90.786781 104.291405,91.850174 
z"/>
<path fill="#F7CD35" opacity="1.000000" stroke="none" 
	d="
M53.244125,84.333481 
	C52.903702,84.050484 52.452686,84.054382 52.227200,84.053101 
	C51.707661,82.609009 51.413609,81.166199 51.083450,79.356796 
	C51.686386,78.427032 52.471764,77.923584 53.275375,78.132927 
	C61.245831,80.209290 68.469116,76.684677 76.327599,75.033943 
	C78.528496,74.604149 80.278870,73.650459 82.583519,74.379089 
	C83.135651,74.757874 83.319504,74.959435 83.651138,75.543121 
	C84.090126,78.793701 82.084854,80.063522 79.996948,81.126930 
	C77.928558,82.180412 75.901955,83.265396 73.716225,84.927704 
	C66.715836,86.269341 60.074509,88.430946 53.244125,84.333481 
z"/>
<path fill="#FBD53C" opacity="1.000000" stroke="none" 
	d="
M77.150597,75.625343 
	C71.061646,78.582642 64.724365,79.667290 58.428112,80.865532 
	C56.001221,81.327385 54.206989,78.987846 51.430923,79.003319 
	C51.021988,77.914902 50.996628,76.839607 50.955017,75.361115 
	C50.812630,74.789429 50.686493,74.620926 50.644188,74.148041 
	C50.758453,73.444725 50.788883,73.045807 50.865166,72.350800 
	C55.708698,74.706604 60.944164,73.939789 66.536476,73.995193 
	C67.410172,73.642906 67.854889,73.340973 68.723740,72.980507 
	C71.557236,72.837036 73.923203,73.241791 76.543831,74.331703 
	C77.018791,74.790718 77.160149,75.020378 77.150597,75.625343 
z"/>
<path fill="#E79E31" opacity="1.000000" stroke="none" 
	d="
M50.565254,74.008881 
	C50.779095,74.026512 50.830170,74.209373 50.910007,74.675079 
	C50.938766,74.957924 50.498997,74.991608 50.279697,75.011551 
	C50.108170,74.719261 50.222198,74.433472 50.565254,74.008881 
z"/>
<path fill="#E9AF25" opacity="1.000000" stroke="none" 
	d="
M64.338531,93.923782 
	C62.928276,94.006310 61.878460,93.970299 60.436676,93.909134 
	C58.900143,92.242294 57.646744,90.726074 55.316013,90.021118 
	C54.823467,90.101479 54.662212,90.230736 54.257812,90.167679 
	C54.014675,89.975357 54.004498,89.991104 54.015938,89.981689 
	C54.013321,89.230965 53.999260,88.489670 53.978424,87.377350 
	C55.788429,85.603065 57.257362,86.999733 59.155075,87.781403 
	C61.280308,89.604797 64.480247,89.060432 65.552330,92.216309 
	C65.409203,93.098022 65.124886,93.501472 64.338531,93.923782 
z"/>
<path fill="#D79D42" opacity="1.000000" stroke="none" 
	d="
M54.100353,90.134750 
	C54.014675,89.975357 54.499794,89.963867 54.742260,89.968048 
	C54.718494,90.079529 54.452263,90.186836 54.100353,90.134750 
z"/>
<path fill="#C94805" opacity="1.000000" stroke="none" 
	d="
M46.377800,53.876747 
	C46.001637,51.938480 45.997120,49.930553 46.034088,47.495480 
	C49.256054,49.018997 48.509491,51.362370 46.377800,53.876747 
z"/>
<path fill="#3CC790" opacity="1.000000" stroke="none" 
	d="
M127.598969,132.886230 
	C128.851501,132.826508 129.704376,132.659470 130.777344,132.246475 
	C132.059280,132.576691 133.344818,132.854568 133.923157,134.437469 
	C132.106659,135.114395 131.029510,136.676575 129.297302,137.861969 
	C126.861931,137.809525 124.659126,138.426987 122.282043,137.267883 
	C121.426277,136.327698 121.231911,135.557877 121.586227,134.321182 
	C123.339928,132.441483 125.200813,132.290726 127.598969,132.886230 
z"/>
<path fill="#AEE1D4" opacity="1.000000" stroke="none" 
	d="
M112.812546,109.016014 
	C112.751961,109.278038 112.422462,109.188347 112.254990,109.162750 
	C112.178802,108.749359 112.270096,108.361565 112.361389,107.973770 
	C112.531967,108.233841 112.702545,108.493919 112.812546,109.016014 
z"/>
<path fill="#CB7255" opacity="1.000000" stroke="none" 
	d="
M97.733841,19.072468 
	C98.251465,21.011265 97.210533,22.044992 95.317642,22.846193 
	C93.476410,22.821329 91.853020,23.342770 90.185379,22.095570 
	C91.819649,21.030592 93.680573,20.282547 95.771286,19.285133 
	C96.464806,19.025660 96.928535,19.015558 97.733841,19.072468 
z"/>
<path fill="#F3C42D" opacity="1.000000" stroke="none" 
	d="
M59.414368,89.042671 
	C57.552505,88.361458 56.106133,87.722916 54.315704,87.045357 
	C53.173382,86.443665 52.989548,85.607040 52.925205,84.379013 
	C59.644108,86.004990 66.375206,84.409462 73.553894,83.997223 
	C77.175484,81.856308 80.581108,80.625221 84.852516,81.587570 
	C85.781296,82.549751 85.910927,83.381271 85.607895,84.674240 
	C77.487778,90.090958 68.919258,91.252129 59.414368,89.042671 
z"/>
<path fill="#D39C41" opacity="1.000000" stroke="none" 
	d="
M61.998558,97.300720 
	C64.079597,97.232796 65.301247,98.432335 65.973175,100.675034 
	C67.232597,102.473282 68.464149,103.922707 67.642120,106.341461 
	C67.316414,106.795609 67.150917,106.947350 66.665840,107.192627 
	C65.653748,107.124474 65.251076,106.653030 64.879311,105.736664 
	C64.597023,105.076180 64.447128,104.696342 64.197983,104.029922 
	C64.254051,101.941483 62.050930,101.825058 61.466930,100.195038 
	C61.482731,99.200630 61.723137,98.406670 61.998558,97.300720 
z"/>
<path fill="#5A9862" opacity="1.000000" stroke="none" 
	d="
M64.039848,104.046295 
	C64.353661,103.911697 64.555740,104.136551 64.735031,104.648590 
	C64.680573,105.032524 64.578232,105.192757 64.246017,105.184189 
	C64.016151,105.015388 63.976025,104.976341 63.955532,104.956406 
	C63.956280,104.738411 63.977524,104.540344 64.039848,104.046295 
z"/>
<path fill="#47E3A7" opacity="1.000000" stroke="none" 
	d="
M63.634338,131.048813 
	C66.964386,132.386612 69.555031,134.176910 70.955933,137.657166 
	C68.987358,140.060684 66.892921,138.108185 64.971512,137.882095 
	C59.203220,137.203369 54.134087,140.411758 48.269913,140.165802 
	C51.622845,134.513397 57.576843,133.035355 63.634338,131.048813 
z"/>
<path fill="#EBEEF3" opacity="1.000000" stroke="none" 
	d="
M82.321381,129.789337 
	C76.973793,131.180725 75.738167,126.188339 72.354691,124.000961 
	C70.309883,123.258461 69.998047,121.947586 70.456970,119.940475 
	C71.746017,118.070625 73.288055,117.645142 74.977638,118.018593 
	C79.265350,118.966331 83.719658,118.610985 88.342369,119.970398 
	C90.842972,123.708412 88.442879,125.248802 85.480713,126.881393 
	C84.821304,127.252335 84.546661,127.453758 84.155487,127.886131 
	C83.568970,128.616058 83.153648,129.169327 82.321381,129.789337 
z"/>
<path fill="#3DD18B" opacity="1.000000" stroke="none" 
	d="
M82.939240,138.016022 
	C82.938080,137.266098 82.962219,136.518951 82.981804,135.398010 
	C82.864769,134.847519 82.752296,134.670792 82.834717,134.247604 
	C83.029602,134.001129 82.997063,133.992310 82.998817,134.009064 
	C83.218437,133.788223 83.443100,133.557220 83.852043,133.168793 
	C84.029526,133.004715 83.995956,132.995956 84.000328,133.012726 
	C84.218262,132.788971 84.441078,132.557327 84.851280,132.172089 
	C85.029411,132.009613 84.997543,131.997620 85.003571,132.013550 
	C85.219917,131.787735 85.441010,131.556259 85.850945,131.173950 
	C86.029030,131.012863 85.998573,130.998581 86.005707,131.013794 
	C86.220963,130.786896 86.440727,130.555862 86.849930,130.175873 
	C87.027725,130.015839 86.999344,129.999390 87.007591,130.013550 
	C87.225143,129.788437 87.441490,129.555679 87.845535,129.173950 
	C88.026192,129.018433 88.006454,129.012360 88.019257,129.020172 
	C88.125153,128.884262 88.218246,128.740524 88.457230,128.101425 
	C88.691734,127.458031 88.780342,127.310005 89.200638,126.767982 
	C89.651352,126.250946 89.770386,126.127899 90.252647,125.640823 
	C90.737823,125.153824 90.859787,125.030853 91.350914,124.528587 
	C91.845604,124.017685 91.971123,123.886078 92.489983,123.347130 
	C93.027252,122.804108 93.171188,122.668427 93.826355,122.185410 
	C94.958389,121.636154 95.605049,121.529854 96.530914,121.156052 
	C99.323616,118.654617 102.056435,117.134827 105.917137,118.561523 
	C107.155800,120.487740 106.308800,121.763130 104.960297,123.239853 
	C97.509956,127.121872 91.839058,132.582031 86.125458,138.561188 
	C85.027435,138.907410 84.296127,138.843216 83.304504,138.232483 
	C83.009094,137.994415 82.964546,138.018799 82.939240,138.016022 
z"/>
<path fill="#5AB56F" opacity="1.000000" stroke="none" 
	d="
M70.419769,119.787605 
	C70.871918,121.165764 71.395866,122.171585 71.984360,123.512856 
	C71.905411,125.269485 71.117706,125.980347 69.328110,126.015297 
	C68.965149,126.043884 68.984406,126.018486 68.975288,126.016464 
	C68.427902,125.172836 67.884773,124.334274 67.168861,123.256027 
	C66.965729,123.035400 66.995674,123.003479 66.975792,123.012573 
	C66.424538,122.174614 65.887955,121.330795 65.166222,120.255074 
	C64.962181,120.034935 64.989822,120.016808 64.978630,120.020134 
	C64.757996,119.771439 64.542747,119.524490 64.147217,119.109573 
	C63.972752,118.936554 63.951382,118.523293 63.956215,118.317612 
	C64.184013,116.770622 63.592049,114.640266 66.587860,115.818390 
	C67.059158,116.239647 67.238220,116.543251 67.658417,116.962662 
	C69.388664,117.164017 70.158913,118.046951 70.419769,119.787605 
z"/>
<path fill="#47A867" opacity="1.000000" stroke="none" 
	d="
M85.377090,127.176880 
	C86.525917,125.281578 87.955887,123.512238 89.542595,121.429092 
	C89.332260,120.049454 90.059570,119.656250 91.133018,119.261124 
	C92.662445,119.194641 94.019562,118.731270 94.784058,120.667633 
	C94.829445,121.597923 94.559372,122.079391 94.197990,122.808525 
	C94.049164,123.037392 94.031723,123.016380 94.032394,123.023811 
	C93.780281,123.218819 93.548149,123.429192 93.187622,123.844353 
	C93.038574,124.026352 93.003845,124.003677 93.015305,124.020966 
	C92.774536,124.224487 92.543243,124.433853 92.185066,124.848099 
	C92.037239,125.029854 92.002129,125.000854 92.015884,125.018715 
	C91.776100,125.223015 91.543831,125.432968 91.184578,125.848946 
	C91.036331,126.031448 91.001221,126.000061 91.016144,126.017838 
	C90.776421,126.222694 90.543182,126.433464 90.182419,126.851097 
	C90.033493,127.034271 90.000000,127.000305 90.016869,127.016487 
	C89.778076,127.221062 89.543716,127.432999 89.180473,127.852188 
	C89.030296,128.035904 89.014282,128.019882 89.025543,128.033203 
	C88.857086,128.167374 88.677368,128.288223 88.243713,128.206497 
	C87.212585,127.770210 86.435410,127.536522 85.377090,127.176880 
z"/>
<path fill="#47A867" opacity="1.000000" stroke="none" 
	d="
M82.351837,129.950012 
	C82.548828,129.458939 83.045380,128.914978 83.790451,128.244049 
	C83.891243,128.955811 83.568962,129.658478 82.351837,129.950012 
z"/>
<path fill="#2BA65F" opacity="1.000000" stroke="none" 
	d="
M86.807556,130.127930 
	C86.844627,130.289337 86.661530,130.562820 86.245636,130.932648 
	C86.121559,130.705719 86.313072,130.442719 86.807556,130.127930 
z"/>
<path fill="#2BA65F" opacity="1.000000" stroke="none" 
	d="
M82.872879,134.091370 
	C83.027779,134.171921 83.025963,134.342697 83.000687,134.768860 
	C82.829475,134.846115 82.662163,134.679352 82.547462,134.482010 
	C82.518158,134.431595 82.655418,134.284363 82.872879,134.091370 
z"/>
<path fill="#2BA65F" opacity="1.000000" stroke="none" 
	d="
M83.808487,133.119675 
	C83.838692,133.274094 83.647858,133.543472 83.228790,133.919342 
	C83.115967,133.702591 83.311584,133.438858 83.808487,133.119675 
z"/>
<path fill="#2BA65F" opacity="1.000000" stroke="none" 
	d="
M84.808319,132.123596 
	C84.841583,132.281174 84.653763,132.552734 84.235321,132.926910 
	C84.117386,132.705582 84.311562,132.441605 84.808319,132.123596 
z"/>
<path fill="#2BA65F" opacity="1.000000" stroke="none" 
	d="
M87.996063,128.260101 
	C88.164383,128.007156 88.338997,128.010391 88.775200,128.030060 
	C88.970917,128.391953 88.791351,128.661697 88.265076,128.941895 
	C88.022163,128.857437 88.012268,128.686874 87.996063,128.260101 
z"/>
<path fill="#2BA65F" opacity="1.000000" stroke="none" 
	d="
M85.808434,131.125916 
	C85.844254,131.286285 85.659470,131.559708 85.242142,131.931305 
	C85.120064,131.705780 85.312813,131.442276 85.808434,131.125916 
z"/>
<path fill="#2BA65F" opacity="1.000000" stroke="none" 
	d="
M87.806412,129.129456 
	C87.844727,129.291931 87.663261,129.565414 87.248817,129.933319 
	C87.122574,129.704727 87.312836,129.442322 87.806412,129.129456 
z"/>
<path fill="#556747" opacity="1.000000" stroke="none" 
	d="
M66.529633,110.754753 
	C66.339195,111.506050 66.332504,111.929253 66.369202,112.669037 
	C64.210754,111.799225 63.994019,109.716240 63.974266,107.150284 
	C64.434959,106.514511 64.904243,106.458153 65.681870,106.781448 
	C65.969048,107.008095 65.988220,107.016914 65.989357,107.027420 
	C66.374641,107.371002 66.671066,107.769424 66.958496,108.601608 
	C67.044106,109.481552 66.936554,109.966934 66.529633,110.754753 
z"/>
<path fill="#CF7927" opacity="1.000000" stroke="none" 
	d="
M65.960228,106.680954 
	C65.527390,106.970657 65.085739,106.933220 64.317192,106.822411 
	C63.986423,106.364090 63.982540,105.979149 63.997402,105.304794 
	C64.016151,105.015388 64.402107,104.954193 64.592514,104.913246 
	C65.172409,105.366135 65.561905,105.859970 65.960228,106.680954 
z"/>
<path fill="#42B86E" opacity="1.000000" stroke="none" 
	d="
M66.993477,123.353134 
	C68.035072,123.465324 68.744270,124.198143 68.948166,125.692772 
	C67.920822,125.562752 67.250801,124.799576 66.993477,123.353134 
z"/>
<path fill="#42B86E" opacity="1.000000" stroke="none" 
	d="
M64.991165,120.352730 
	C66.023651,120.474487 66.737198,121.204529 66.937454,122.700119 
	C65.906738,122.570518 65.247238,121.798531 64.991165,120.352730 
z"/>
<path fill="#42B86E" opacity="1.000000" stroke="none" 
	d="
M64.075989,119.170059 
	C64.230400,119.148331 64.488045,119.360107 64.856567,119.797668 
	C64.704704,119.816826 64.441971,119.610191 64.075989,119.170059 
z"/>
<path fill="#2AD490" opacity="1.000000" stroke="none" 
	d="
M121.553299,133.341324 
	C122.002625,134.748917 122.000366,135.499680 121.996460,136.625854 
	C119.359535,136.614212 117.140228,137.873215 114.907661,138.906647 
	C107.579865,142.298599 99.591965,142.601227 91.415466,143.984055 
	C89.996651,143.192444 89.795898,142.090286 89.936485,140.472626 
	C90.230690,139.514511 90.531731,139.038361 91.260208,138.369949 
	C98.111168,136.282318 104.518654,134.123016 110.785843,131.540146 
	C114.401848,130.049911 117.890366,130.255737 121.553299,133.341324 
z"/>
<path fill="#33D38C" opacity="1.000000" stroke="none" 
	d="
M90.778915,139.715210 
	C90.998390,141.066025 90.999153,142.131897 90.999771,143.597321 
	C87.744530,146.617432 86.001289,143.326935 83.386787,142.059586 
	C83.030006,140.920197 83.007652,139.856552 82.997200,138.393646 
	C83.755371,137.996948 84.501640,137.999481 85.621185,138.003006 
	C87.752174,137.724518 89.357086,137.934250 90.778915,139.715210 
z"/>
<path fill="#FCE56D" opacity="1.000000" stroke="none" 
	d="
M77.815926,41.225456 
	C78.958794,41.079685 79.834480,41.110054 81.029869,41.216953 
	C81.384605,41.578262 81.419655,41.863045 81.630592,42.541237 
	C81.869385,46.625397 79.357834,47.657978 76.505287,47.203880 
	C69.617256,46.107372 62.985355,46.218349 56.662445,49.540733 
	C56.225136,49.770519 55.682377,49.549225 54.872589,49.155243 
	C54.548145,48.874634 54.282879,48.883663 54.156399,48.923210 
	C55.020191,47.204624 54.344822,44.711411 56.738308,43.240997 
	C60.283443,42.071705 64.146011,42.858871 66.838043,39.449669 
	C70.238434,38.921661 73.242393,40.172478 76.732414,40.816856 
	C77.248207,41.098724 77.398476,41.250160 77.815926,41.225456 
z"/>
<path fill="#D36431" opacity="1.000000" stroke="none" 
	d="
M79.010162,23.940498 
	C81.117538,23.449066 83.225090,23.271925 85.794907,23.106627 
	C87.829826,25.817696 85.332756,27.841326 85.014503,30.592295 
	C82.902832,31.297665 80.852150,31.647514 78.401184,31.999811 
	C76.160400,30.277962 73.873718,31.315857 71.385315,30.981281 
	C71.286896,28.590874 73.608742,28.929277 74.999306,28.022644 
	C76.573364,26.996374 78.750137,26.665215 79.010162,23.940498 
z"/>
<path fill="#FDEF82" opacity="1.000000" stroke="none" 
	d="
M66.629410,39.045265 
	C67.603371,40.030315 69.148026,40.434093 68.676476,41.846584 
	C68.215057,43.228737 66.781235,43.200031 65.763397,42.943993 
	C62.775478,42.192383 60.205673,45.674290 57.091309,43.355469 
	C57.619396,42.258629 58.224632,41.486073 58.969864,40.441238 
	C59.432846,40.079578 59.755833,39.990196 60.330940,39.888992 
	C61.489750,39.513081 62.451382,39.509762 63.711609,39.263649 
	C64.768379,39.032421 65.517578,38.985107 66.629410,39.045265 
z"/>
<path fill="#E19067" opacity="1.000000" stroke="none" 
	d="
M72.649849,25.060181 
	C72.764854,27.021044 71.179092,27.457657 69.272568,27.968941 
	C68.740601,28.010717 68.560669,28.014395 68.109100,28.007683 
	C67.708084,27.567694 67.578712,27.138094 67.411812,26.494432 
	C69.009583,25.884434 70.644890,25.488499 72.649849,25.060181 
z"/>
<path fill="#3ACE9C" opacity="1.000000" stroke="none" 
	d="
M127.954826,132.648102 
	C126.512238,134.585098 124.565430,133.802643 122.406769,133.999115 
	C122.004883,133.998169 121.999237,134.000000 121.996109,133.998474 
	C118.102348,128.818954 113.977936,123.824097 109.864426,118.351852 
	C109.346352,116.719841 108.950142,115.441910 109.864388,113.828377 
	C111.201279,112.937653 112.252380,113.114914 113.650948,113.778702 
	C114.001198,113.997002 114.000000,114.000000 114.001534,113.998863 
	C117.321243,120.107430 122.986427,124.380486 126.677521,130.197403 
	C127.113014,130.883713 127.501007,131.600159 127.954826,132.648102 
z"/>
<path fill="#32AD77" opacity="1.000000" stroke="none" 
	d="
M110.237366,113.677383 
	C110.314034,115.090027 110.601654,116.189194 110.936096,117.628212 
	C109.862801,119.387337 108.462990,120.006363 106.325462,119.248291 
	C102.504784,118.685669 99.647446,120.352715 96.397263,121.970375 
	C95.848053,121.852699 95.657684,121.675880 95.707809,121.192383 
	C98.471619,116.858597 102.554863,113.446991 101.148926,107.418030 
	C103.799652,108.789673 107.095985,109.340599 109.700058,111.807693 
	C110.363579,112.378372 110.522972,112.829826 110.237366,113.677383 
z"/>
<path fill="#4BCEA6" opacity="1.000000" stroke="none" 
	d="
M110.423355,113.990700 
	C110.005226,113.550713 109.984047,113.110565 109.966507,112.339973 
	C111.408035,111.925102 112.757675,112.076683 113.836487,113.695168 
	C112.940903,113.994843 111.880600,113.992691 110.423355,113.990700 
z"/>
<path fill="#E1A32F" opacity="1.000000" stroke="none" 
	d="
M105.613602,50.749981 
	C106.146332,56.103657 105.802231,61.198700 106.874725,66.309631 
	C108.038681,71.856430 105.976059,77.088562 104.052086,82.616150 
	C102.768578,84.350121 101.707977,86.011795 99.094849,85.367905 
	C98.373894,84.770149 98.115639,84.299728 97.891907,83.369087 
	C97.712975,81.552200 98.331841,80.309311 98.891014,78.642105 
	C102.762329,71.414673 102.773148,64.060371 101.854897,56.193115 
	C101.484680,54.329903 101.552887,52.903957 102.450302,51.178684 
	C103.498123,50.258793 104.344490,50.176579 105.613602,50.749981 
z"/>
<path fill="#E19B1E" opacity="1.000000" stroke="none" 
	d="
M98.641663,85.121269 
	C100.440445,84.366768 101.879730,83.724983 103.659668,83.037788 
	C103.999840,84.060829 103.999374,85.129280 103.996712,86.598190 
	C96.165047,91.931488 88.827011,97.988113 78.418945,97.993042 
	C76.760742,95.608406 78.584389,95.101700 80.163857,94.700584 
	C86.961365,92.974297 92.821922,89.497093 98.641663,85.121269 
z"/>
<path fill="#DEAC4D" opacity="1.000000" stroke="none" 
	d="
M86.730675,40.943359 
	C93.283554,38.688221 99.687996,36.852913 104.961777,43.703300 
	C105.218758,45.060078 104.895439,46.219296 105.987915,47.418613 
	C106.127434,47.908009 106.082603,48.122509 106.003296,48.663906 
	C105.777008,49.153221 105.585190,49.315643 105.053757,49.642357 
	C104.217690,49.904503 103.717079,49.935787 102.845673,49.820267 
	C102.264862,49.615334 102.050705,49.490898 101.604233,49.080738 
	C100.499176,41.571011 94.807739,44.050133 90.249283,43.471970 
	C88.452034,43.252693 87.161697,42.845219 86.730675,40.943359 
z"/>
<path fill="#E8B138" opacity="1.000000" stroke="none" 
	d="
M102.791039,49.319359 
	C103.453842,49.009125 103.897209,49.008945 104.673080,49.013809 
	C105.176811,49.173344 105.348045,49.327831 105.748711,49.741241 
	C105.978134,50.000164 105.985245,50.497162 105.985367,50.745590 
	C105.246635,50.998436 104.507782,51.002850 103.399200,51.011860 
	C102.667007,50.623379 102.514381,50.161034 102.791039,49.319359 
z"/>
<path fill="#E1A32F" opacity="1.000000" stroke="none" 
	d="
M105.981194,49.747772 
	C105.680733,49.875420 105.434303,49.684799 105.122200,49.223579 
	C105.005569,49.018856 105.487549,49.004772 105.728180,48.997787 
	C105.973961,49.158993 105.979103,49.327190 105.981194,49.747772 
z"/>
<path fill="#CF7927" opacity="1.000000" stroke="none" 
	d="
M66.339394,109.131973 
	C66.104698,108.468483 66.028702,108.062454 65.971603,107.347176 
	C67.854256,105.306465 66.466301,103.511688 66.062805,101.374832 
	C66.467155,101.009758 66.902405,101.006538 67.664230,101.004799 
	C68.844604,103.660828 71.147293,105.258034 72.831696,107.714981 
	C74.580620,109.205681 76.374901,109.856964 78.680008,110.021484 
	C79.745094,110.031052 80.485237,110.029427 81.594406,110.034790 
	C81.975662,111.609642 82.248901,112.973389 84.623840,112.987564 
	C85.175545,113.161819 85.363167,113.326889 85.250580,113.716446 
	C79.272217,116.349602 74.409370,114.292084 69.392738,111.077454 
	C68.277817,110.325195 67.209267,110.141441 66.339394,109.131973 
z"/>
<path fill="#E6A721" opacity="1.000000" stroke="none" 
	d="
M99.000443,84.674026 
	C96.533134,89.955727 91.505249,91.452316 87.127846,93.833702 
	C84.291183,95.376892 80.831711,95.282906 78.083267,97.632874 
	C76.891266,97.688965 75.788925,97.388916 74.343933,97.050323 
	C73.552933,97.007812 73.104637,97.011002 72.320419,97.034386 
	C71.240349,97.033470 70.496246,97.018532 69.380142,96.993423 
	C68.639633,96.573563 68.408440,96.097321 68.351715,95.153671 
	C69.275040,92.666054 71.176613,92.456406 72.979942,92.616768 
	C80.972984,93.327614 87.286934,89.434654 93.532906,85.322792 
	C95.038033,84.331924 96.295471,82.919106 98.618340,82.873169 
	C98.996368,83.447632 98.998055,83.893570 99.000443,84.674026 
z"/>
<path fill="#B43D0E" opacity="1.000000" stroke="none" 
	d="
M85.637711,103.912674 
	C83.370605,109.540535 77.134712,109.436501 73.022285,103.326126 
	C76.991295,103.861649 81.058411,104.201561 85.637711,103.912674 
z"/>
<path fill="#E6A721" opacity="1.000000" stroke="none" 
	d="
M64.052284,94.372711 
	C64.176888,93.775528 64.375671,93.508728 64.791367,93.114845 
	C65.390640,92.644691 65.842033,92.479591 66.707703,92.587616 
	C67.437103,93.064964 67.676888,93.495941 67.782425,94.379044 
	C67.696312,94.994049 67.611229,95.231186 67.261215,95.737793 
	C65.871849,95.941864 64.656319,96.076889 64.052284,94.372711 
z"/>
<path fill="#E19B1E" opacity="1.000000" stroke="none" 
	d="
M72.104828,97.252823 
	C72.415466,96.388039 72.931259,96.042107 73.844559,96.800415 
	C73.870102,97.322952 73.669579,97.580055 73.185715,97.907967 
	C72.676414,97.901268 72.427559,97.709396 72.104828,97.252823 
z"/>
<path fill="#E19B1E" opacity="1.000000" stroke="none" 
	d="
M67.176727,96.239609 
	C66.997101,95.834770 66.997925,95.662254 67.001785,95.231003 
	C67.399551,94.610504 67.861931,94.467583 68.695778,94.769821 
	C69.001663,95.437859 69.003716,95.879578 69.006958,96.652275 
	C68.457832,96.812813 67.907501,96.642380 67.176727,96.239609 
z"/>
<path fill="#DADAE1" opacity="1.000000" stroke="none" 
	d="
M91.551537,118.955582 
	C90.979347,119.778099 90.516472,120.319717 89.876465,120.988312 
	C83.531067,120.691513 77.500824,118.209869 70.770241,120.016983 
	C69.634613,119.293594 68.921257,118.427246 68.053726,117.319679 
	C68.665665,115.504730 69.749352,115.059776 71.503342,115.645363 
	C77.788834,117.743858 84.311211,118.131088 91.325302,118.071075 
	C91.734062,118.279518 91.697456,118.477104 91.551537,118.955582 
z"/>
<path fill="#AD9A98" opacity="1.000000" stroke="none" 
	d="
M66.109818,109.245483 
	C67.032188,109.402138 67.883675,109.929764 68.889397,110.723862 
	C68.367531,111.010040 67.691429,111.029739 66.680603,111.066147 
	C66.243568,110.594048 66.141258,110.105255 66.109818,109.245483 
z"/>
<path fill="#BB6323" opacity="1.000000" stroke="none" 
	d="
M85.254082,113.941833 
	C84.950378,113.940926 84.976532,113.469162 84.982231,113.232956 
	C85.449440,113.001396 85.910942,113.006042 86.717758,113.034592 
	C86.561302,113.353241 86.059540,113.647987 85.254082,113.941833 
z"/>
<path fill="#2BA65F" opacity="1.000000" stroke="none" 
	d="
M95.673950,120.922287 
	C95.964653,121.076118 95.980995,121.266541 96.017883,121.743240 
	C95.549622,122.300125 95.060837,122.570732 94.310608,122.939362 
	C94.177444,122.494781 94.305725,121.952164 94.642677,121.222458 
	C95.034096,121.009865 95.216850,120.984367 95.673950,120.922287 
z"/>
<path fill="#CD651B" opacity="1.000000" stroke="none" 
	d="
M78.768921,109.769119 
	C76.576019,111.636971 74.795929,110.414909 73.061478,108.346130 
	C74.997147,107.917778 76.760391,108.728783 78.768921,109.769119 
z"/>
<path fill="#7D3513" opacity="1.000000" stroke="none" 
	d="
M107.262627,42.776566 
	C105.934616,42.271713 106.302872,41.401913 106.897858,40.254448 
	C107.181419,39.865932 107.345207,39.744602 107.749191,39.812424 
	C107.827766,40.852406 107.666138,41.703243 107.262627,42.776566 
z"/>
<path fill="#873B26" opacity="1.000000" stroke="none" 
	d="
M108.255447,39.994225 
	C107.989403,40.001572 107.503334,39.992455 107.260483,39.989861 
	C107.011482,39.543377 107.005318,39.099491 107.010071,38.322571 
	C107.911507,38.079201 108.639755,38.396488 108.986206,39.649902 
	C108.875809,39.966846 108.698654,39.976864 108.255447,39.994225 
z"/>
<path fill="#F8D25A" opacity="1.000000" stroke="none" 
	d="
M86.523361,40.583527 
	C87.543419,42.042797 88.898933,41.968212 90.601746,42.004974 
	C92.727028,43.421055 94.457108,44.833027 93.493958,47.831444 
	C92.656456,48.741173 91.896072,48.981789 90.679672,49.073311 
	C88.548035,48.612309 86.744942,48.648952 84.613541,48.295151 
	C84.011345,48.122726 83.778297,48.031929 83.230865,47.740456 
	C81.572388,46.521534 82.170479,44.803356 81.241425,43.282906 
	C81.049133,42.726353 81.094070,42.436939 81.244286,41.720505 
	C82.956665,41.070118 84.563774,40.846752 86.523361,40.583527 
z"/>
<path fill="#873B26" opacity="1.000000" stroke="none" 
	d="
M103.024689,34.372459 
	C105.237312,33.942497 106.832481,34.690365 107.000198,37.610786 
	C104.900711,37.850956 103.764519,36.550484 103.024689,34.372459 
z"/>
<path fill="#FCE56D" opacity="1.000000" stroke="none" 
	d="
M63.657700,39.004025 
	C63.296242,39.907356 62.336491,39.999760 60.956367,39.911613 
	C61.313786,39.064304 62.303345,38.991558 63.657700,39.004025 
z"/>
<path fill="#8B5124" opacity="1.000000" stroke="none" 
	d="
M77.839378,40.998974 
	C77.902557,41.512020 77.772087,42.096436 77.114723,41.194008 
	C77.097931,40.947289 77.595657,40.948631 77.839378,40.998974 
z"/>
<path fill="#FDD648" opacity="1.000000" stroke="none" 
	d="
M83.744804,47.240143 
	C85.821838,47.146633 87.689964,46.634995 89.721039,47.734947 
	C90.714615,49.807945 89.338531,50.711426 88.076385,52.016888 
	C83.537628,55.907711 82.710609,61.646889 79.426399,65.993668 
	C76.708534,69.590858 73.966072,72.495270 69.261841,73.759460 
	C68.554932,73.997681 68.110329,73.997505 67.332253,73.995613 
	C69.026192,69.270462 71.067497,64.552917 73.074974,59.821022 
	C74.028992,57.572269 75.039894,55.329277 74.998016,52.402603 
	C77.195244,49.309776 80.271904,48.265629 83.744804,47.240143 
z"/>
<path fill="#FEDD50" opacity="1.000000" stroke="none" 
	d="
M83.755005,47.006626 
	C82.042656,49.980389 78.716187,50.688702 75.371170,51.993111 
	C67.838364,53.983551 60.677334,55.964962 53.092430,57.913422 
	C52.866581,56.424252 53.064606,54.968037 53.437408,53.189720 
	C60.111881,47.991985 67.394180,45.859680 75.466141,46.966202 
	C77.831657,47.290474 79.974564,45.984657 82.639076,46.754211 
	C83.163513,47.000126 83.332520,47.001316 83.755005,47.006626 
z"/>
<path fill="#FDE25B" opacity="1.000000" stroke="none" 
	d="
M82.995010,46.627686 
	C73.317329,48.218384 63.461281,48.576328 54.023430,52.898300 
	C53.806889,51.787407 54.001591,50.707195 54.372219,49.250809 
	C61.695393,44.053932 69.466354,44.260380 77.468552,45.915321 
	C79.039238,46.240158 80.385605,45.500092 80.941154,43.388458 
	C83.045631,43.249443 82.989517,44.772018 82.995010,46.627686 
z"/>
<path fill="#F8CC41" opacity="1.000000" stroke="none" 
	d="
M86.787415,51.315498 
	C87.906593,50.185963 88.814102,49.369019 89.859787,48.275677 
	C90.747498,47.996021 91.497032,47.992760 92.621307,47.986549 
	C94.238342,47.135998 95.022530,47.727444 95.736969,49.223408 
	C92.931824,55.564537 91.642632,62.015739 89.828033,68.309975 
	C88.947685,71.363594 87.226303,74.043129 83.394402,74.980911 
	C81.256195,75.325691 79.511505,75.653519 77.383255,75.990997 
	C76.999718,75.833702 76.999733,75.666740 76.999748,75.249344 
	C83.111435,68.404953 83.572441,59.495678 86.787415,51.315498 
z"/>
<path fill="#F4C73D" opacity="1.000000" stroke="none" 
	d="
M83.001083,75.249466 
	C87.729866,71.462044 89.370766,66.451851 90.110764,60.845139 
	C90.609596,57.065601 91.576195,53.314697 94.838257,50.305244 
	C95.459251,49.615593 95.985031,49.468403 96.955498,49.755527 
	C98.116325,50.894306 98.269409,52.011353 98.200356,53.599266 
	C96.553635,60.144276 96.725716,66.657188 93.858620,72.908310 
	C90.693764,75.515953 87.841583,78.014091 83.342056,76.259544 
	C83.002045,75.836540 83.001663,75.668800 83.001083,75.249466 
z"/>
<path fill="#F2C534" opacity="1.000000" stroke="none" 
	d="
M82.953003,76.352844 
	C86.562332,76.530754 89.159874,73.993668 92.634758,73.044930 
	C93.676102,73.525276 93.959549,74.255173 94.053009,75.478905 
	C92.703156,79.836708 89.921127,81.893112 85.388588,82.077057 
	C81.602989,82.657974 78.205368,83.315948 74.403069,83.985435 
	C74.399414,81.370888 76.934273,81.311951 78.590919,80.213562 
	C80.148567,79.180801 82.341209,78.952263 82.953003,76.352844 
z"/>
<path fill="#FAD342" opacity="1.000000" stroke="none" 
	d="
M86.692566,51.165466 
	C86.974632,57.184082 84.914795,62.928375 83.092873,68.705444 
	C82.222488,71.465302 80.463219,73.636200 77.312210,74.856445 
	C74.554291,75.042595 72.103065,75.133339 69.393906,74.055496 
	C69.031776,73.835899 69.010300,73.578094 69.103928,73.525612 
	C77.414680,68.866257 81.133842,60.737671 84.947830,52.664017 
	C85.207283,52.114784 85.896629,51.768623 86.692566,51.165466 
z"/>
<path fill="#EFBB28" opacity="1.000000" stroke="none" 
	d="
M67.419357,93.066483 
	C66.558411,92.993851 66.115425,92.992973 65.340363,92.989929 
	C64.358574,89.895798 60.816612,91.467484 59.222378,89.269073 
	C67.612968,89.000847 76.050888,87.885536 84.604477,85.009659 
	C85.821518,84.333168 86.565102,84.536484 87.450531,85.597656 
	C87.882156,89.282463 85.250191,90.058838 83.037575,91.098183 
	C78.200066,93.370506 72.971939,92.953499 67.419357,93.066483 
z"/>
<path fill="#ECBA2F" opacity="1.000000" stroke="none" 
	d="
M87.326836,86.246208 
	C86.529091,85.688881 86.056770,85.373482 85.290398,85.028549 
	C84.997726,84.249268 84.999123,83.499527 85.000565,82.374893 
	C87.619682,80.281693 90.973404,79.608643 92.842514,76.299438 
	C94.273140,74.585068 95.393105,72.874825 98.086029,73.777527 
	C99.327400,75.218231 99.405869,76.574409 99.041199,78.385605 
	C96.044693,82.636833 93.706184,87.278641 87.326836,86.246208 
z"/>
<path fill="#30D697" opacity="1.000000" stroke="none" 
	d="
M105.956169,119.340347 
	C107.408661,118.674309 108.828629,118.330322 110.615753,117.977203 
	C114.757431,122.988708 120.024712,126.935829 121.987671,133.630020 
	C116.855942,130.911041 111.761871,132.223587 106.988083,134.636139 
	C102.460541,136.924240 97.682220,138.021423 92.403320,138.985657 
	C91.717697,134.801086 95.238152,133.488983 97.863365,131.821625 
	C101.046249,129.800064 103.085503,127.297516 103.822235,123.295151 
	C104.639587,121.887650 105.281616,120.775024 105.956169,119.340347 
z"/>
<path fill="#38DA97" opacity="1.000000" stroke="none" 
	d="
M103.630951,123.007507 
	C105.923386,127.027817 103.795013,129.604294 100.694168,131.609390 
	C97.643127,133.582260 94.523384,135.416428 92.156250,138.699951 
	C91.694458,139.123001 91.439995,139.317032 91.117607,139.789734 
	C89.482315,139.501190 87.966995,139.002213 86.223068,138.253616 
	C90.043427,131.040100 96.148567,126.445221 103.630951,123.007507 
z"/>
<path fill="#2BA65F" opacity="1.000000" stroke="none" 
	d="
M93.266884,123.933319 
	C93.133614,123.701309 93.318176,123.439354 93.812668,123.135864 
	C93.947960,123.363548 93.768669,123.633232 93.266884,123.933319 
z"/>
<path fill="#2BA65F" opacity="1.000000" stroke="none" 
	d="
M92.267998,124.940399 
	C92.133682,124.707458 92.317726,124.446968 92.808067,124.143318 
	C92.963142,124.382164 92.787140,124.653061 92.267998,124.940399 
z"/>
<path fill="#2BA65F" opacity="1.000000" stroke="none" 
	d="
M91.267883,125.941505 
	C91.134743,125.709023 91.320122,125.448494 91.811050,125.143211 
	C91.966820,125.382355 91.790092,125.654015 91.267883,125.941505 
z"/>
<path fill="#2BA65F" opacity="1.000000" stroke="none" 
	d="
M90.265182,126.942894 
	C90.134384,126.711937 90.321030,126.450935 90.812248,126.143448 
	C90.965950,126.381538 90.787888,126.653503 90.265182,126.942894 
z"/>
<path fill="#2BA65F" opacity="1.000000" stroke="none" 
	d="
M89.261841,127.942322 
	C89.133812,127.713287 89.322166,127.451775 89.814545,127.142029 
	C89.964172,127.377907 89.784050,127.649925 89.261841,127.942322 
z"/>
<path fill="#E9AF25" opacity="1.000000" stroke="none" 
	d="
M86.932907,86.349304 
	C92.014320,86.173134 94.075348,81.755013 97.700424,79.152924 
	C98.381264,78.619629 98.838959,78.482941 99.685257,78.792282 
	C99.694153,80.103188 99.386314,81.208687 99.036575,82.657944 
	C90.678177,90.608704 81.054039,94.859718 69.306702,94.722946 
	C68.556244,94.993690 68.112877,94.991241 67.337158,94.980530 
	C67.003738,94.532967 67.002670,94.093689 67.001495,93.324570 
	C71.493896,90.948906 76.735023,92.769730 81.172760,90.153778 
	C83.086632,89.025589 85.591110,88.894707 86.932907,86.349304 
z"/>
<path fill="#E8B138" opacity="1.000000" stroke="none" 
	d="
M100.274109,78.772301 
	C99.556122,78.997978 99.110252,78.998268 98.329903,78.997757 
	C97.997185,77.608292 97.998940,76.219627 98.000572,74.414291 
	C96.495049,68.967560 98.492035,64.119965 98.913162,58.786476 
	C99.729614,57.076622 100.738945,56.169758 102.604568,55.903622 
	C104.963074,63.817520 104.714241,71.396515 100.274109,78.772301 
z"/>
<path fill="#EFB844" opacity="1.000000" stroke="none" 
	d="
M103.010315,55.582561 
	C102.214531,56.634972 101.416862,57.271976 100.310677,57.956398 
	C97.547462,58.243954 97.393112,56.391880 97.013458,54.367599 
	C97.000832,52.935978 97.001610,51.869286 97.003792,50.402596 
	C98.136124,48.587559 99.628914,48.461109 101.633842,48.899387 
	C102.012726,48.989586 102.511551,48.995483 102.761009,49.002396 
	C103.010468,49.455208 103.010468,49.901112 103.019958,50.681732 
	C103.022453,52.400024 103.015450,53.783588 103.010315,55.582561 
z"/>
<path fill="#F1C456" opacity="1.000000" stroke="none" 
	d="
M102.019547,48.619152 
	C100.848969,50.369663 99.244186,49.900108 97.390182,50.001289 
	C96.559624,50.000961 96.114052,49.999329 95.334358,49.998772 
	C94.900192,49.106312 94.612869,48.348434 93.309738,48.041359 
	C93.417145,45.846275 91.652931,44.497944 91.044662,42.362152 
	C92.983795,42.002804 94.972832,41.954453 96.959938,41.996971 
	C102.235069,42.109848 102.938217,42.994663 102.019547,48.619152 
z"/>
<path fill="#EFBE3B" opacity="1.000000" stroke="none" 
	d="
M96.734467,54.279961 
	C97.833885,55.206703 98.667725,56.410736 99.751862,57.809296 
	C100.363632,63.221176 99.345520,68.307449 98.269157,73.705666 
	C96.560814,74.636421 95.121178,75.275230 93.340775,75.956863 
	C92.999786,75.249123 92.999580,74.498558 92.998772,73.372620 
	C94.155075,66.850586 95.311981,60.703922 96.734467,54.279961 
z"/>
</svg>